<?xml version="1.0" standalone="no"?>
<svg width="567.429" height="360.628" viewBox="0 0 567.429 360.628" xmlns="http://www.w3.org/2000/svg" shape-rendering="crispEdges">
<title>
/Users/matteo/repo/uni/kstar-decay-analysis/graphs/4_1.svg
</title>
<desc>
Creator: ROOT Version 6.24/06
CreationDate: Sun Jan  2 19:13:20 2022</desc>
<defs>
</defs>
<rect x="0.5" y="0" width="566.929" height="360.128" fill="white"/>
<rect x="6.16929" y="3.60128" width="272.126" height="172.861" fill="white"/>
<path d="M210.264,90.0319l -0.00212262, -0.341374l -0.00636773, -0.341353l -0.0106124, -0.34131l -0.0148565, -0.341246l -0.0190996, -0.341161l -0.0233415, -0.341055l -0.027582, -0.340927l -0.0318208, -0.340778l -67.8957, 2.7292z" fill="#ff0000"/>
<path d="M210.264,90.0319l -0.00212262, -0.341374l -0.00636773, -0.341353l -0.0106124, -0.34131l -0.0148565, -0.341246l -0.0190996, -0.341161l -0.0233415, -0.341055l -0.027582, -0.340927l -0.0318208, -0.340778l -67.8957, 2.7292h 68.0315z" fill="none"
 stroke="black"/>
<path d="M210.128,87.3027l -0.193697, -1.51894l -0.277884, -1.51366l -0.361726, -1.50649l -0.445118, -1.49745l -0.527956, -1.48655l -0.610138, -1.4738l -0.691561, -1.45922l -0.772124, -1.44283l -64.0155, 14.6281z" fill="#008bff"/>
<path d="M210.128,87.3027l -0.193697, -1.51894l -0.277884, -1.51366l -0.361726, -1.50649l -0.445118, -1.49745l -0.527956, -1.48655l -0.610138, -1.4738l -0.691561, -1.45922l -0.772124, -1.44283l -64.0155, 14.6281l 67.8957, -2.7292z" fill="none"
 stroke="black"/>
<path d="M206.248,75.4038l -0.855247, -1.43022l -0.934408, -1.4101l -1.0124, -1.3882l -1.08912, -1.36457l -1.16447, -1.33923l -1.23837, -1.3122l -1.31072, -1.28354l -1.38142, -1.25326l -55.0293, 25.4095z" fill="#00bbff"/>
<path d="M206.248,75.4038l -0.855247, -1.43022l -0.934408, -1.4101l -1.0124, -1.3882l -1.08912, -1.36457l -1.16447, -1.33923l -1.23837, -1.3122l -1.31072, -1.28354l -1.38142, -1.25326l -55.0293, 25.4095l 64.0155, -14.6281z" fill="none"
 stroke="black"/>
<path d="M197.262,64.6225l -1.6132, -1.35306l -1.6956, -1.31178l -1.77538, -1.26847l -1.85242, -1.22321l -1.92661, -1.17606l -1.99782, -1.12709l -2.06596, -1.07639l -2.1309, -1.02402l -39.9714, 34.9695z" fill="#b714b7"/>
<path d="M197.262,64.6225l -1.6132, -1.35306l -1.6956, -1.31178l -1.77538, -1.26847l -1.85242, -1.22321l -1.92661, -1.17606l -1.99782, -1.12709l -2.06596, -1.07639l -2.1309, -1.02402l -39.9714, 34.9695l 55.0293, -25.4095z" fill="none"
 stroke="black"/>
<path d="M182.204,55.0624l -2.19365, -0.970542l -2.25198, -0.915048l -2.30684, -0.85814l -2.35813, -0.799907l -2.40578, -0.740439l -2.44972, -0.679828l -2.48988, -0.618167l -2.52619, -0.555552l -20.9893, 41.1072z" fill="#ef75ef"/>
<path d="M182.204,55.0624l -2.19365, -0.970542l -2.25198, -0.915048l -2.30684, -0.85814l -2.35813, -0.799907l -2.40578, -0.740439l -2.44972, -0.679828l -2.48988, -0.618167l -2.52619, -0.555552l -20.9893, 41.1072l 39.9714, -34.9695z" fill="none"
 stroke="black"/>
<path d="M163.222,48.9248l -2.63917, -0.50645l -2.66931, -0.438109l -2.69506, -0.369049l -2.71639, -0.299383l -2.73325, -0.229225l -2.74563, -0.15869l -2.7535, -0.0878952l -2.75684, -0.0169558l -2.75566, 0.0540114l -2.74995, 0.12489l -2.73973,
 0.195563l -2.725, 0.265916l -2.70581, 0.335831l -2.68216, 0.405195l -2.65412, 0.473894l -2.62171, 0.541814l -2.585, 0.608845l -2.54404, 0.674875l -2.49891, 0.739797l -2.44967, 0.803505l -2.39641, 0.865893l -2.33921, 0.926858l -2.27817, 0.986302l
 -2.21339, 1.04413l -2.14498, 1.10023l -2.07304, 1.15454l -1.9977, 1.20694l -1.91908, 1.25737l -1.8373, 1.30573l -1.75251, 1.35194l -1.66484, 1.39594l -1.57443, 1.43764l -1.48145, 1.47698l -1.38602, 1.51389l -1.28832, 1.54832l -1.18851, 1.58021l
 -1.08674, 1.6095l -0.983191, 1.63615l -0.878025, 1.66011l -0.771418, 1.68134l -0.663543, 1.69982l -0.554579, 1.7155l -0.444703, 1.72836l -0.334098, 1.73839l -0.222944, 1.74556l -0.111423, 1.74987l 0.000279924, 1.7513l 0.111983, 1.74985l 0.223502,
 1.74553l 0.334654, 1.73835l 0.445256, 1.72831l 0.555127, 1.71543l 0.664086, 1.69973l 0.771955, 1.68125l 0.878556, 1.66l 0.983714, 1.63602l 1.08726, 1.60936l 1.18901, 1.58006l 1.28882, 1.54816l 1.38651, 1.51372l 1.48192, 1.47679l 1.57489, 1.43743l
 55.0401, -25.4z" fill="#00ffb4"/>
<path d="M163.222,48.9248l -2.63917, -0.50645l -2.66931, -0.438109l -2.69506, -0.369049l -2.71639, -0.299383l -2.73325, -0.229225l -2.74563, -0.15869l -2.7535, -0.0878952l -2.75684, -0.0169558l -2.75566, 0.0540114l -2.74995, 0.12489l -2.73973,
 0.195563l -2.725, 0.265916l -2.70581, 0.335831l -2.68216, 0.405195l -2.65412, 0.473894l -2.62171, 0.541814l -2.585, 0.608845l -2.54404, 0.674875l -2.49891, 0.739797l -2.44967, 0.803505l -2.39641, 0.865893l -2.33921, 0.926858l -2.27817, 0.986302l
 -2.21339, 1.04413l -2.14498, 1.10023l -2.07304, 1.15454l -1.9977, 1.20694l -1.91908, 1.25737l -1.8373, 1.30573l -1.75251, 1.35194l -1.66484, 1.39594l -1.57443, 1.43764l -1.48145, 1.47698l -1.38602, 1.51389l -1.28832, 1.54832l -1.18851, 1.58021l
 -1.08674, 1.6095l -0.983191, 1.63615l -0.878025, 1.66011l -0.771418, 1.68134l -0.663543, 1.69982l -0.554579, 1.7155l -0.444703, 1.72836l -0.334098, 1.73839l -0.222944, 1.74556l -0.111423, 1.74987l 0.000279924, 1.7513l 0.111983, 1.74985l 0.223502,
 1.74553l 0.334654, 1.73835l 0.445256, 1.72831l 0.555127, 1.71543l 0.664086, 1.69973l 0.771955, 1.68125l 0.878556, 1.66l 0.983714, 1.63602l 1.08726, 1.60936l 1.18901, 1.58006l 1.28882, 1.54816l 1.38651, 1.51372l 1.48192, 1.47679l 1.57489, 1.43743l
 55.0401, -25.4l 20.9893, -41.1072z" fill="none" stroke="black"/>
<path d="M87.1921,115.432l 1.66569, 1.39605l 1.75339, 1.35202l 1.8382, 1.30577l 1.92, 1.25738l 1.99864, 1.20692l 2.074, 1.15447l 2.14595, 1.10013l 2.21437, 1.04399l 2.27915, 0.986124l 2.34019, 0.926641l 2.39739, 0.865635l 2.45065, 0.803207l 2.49988,
 0.73946l 2.545, 0.674497l 2.58594, 0.608427l 2.62263, 0.541356l 2.65501, 0.473396l 2.68304, 0.404659l 2.70665, 0.335256l 2.72581, 0.265303l 2.7405, 0.194914l 2.75068, 0.124204l 2.75635, 0.0532904l 2.75748, -0.0177107l 2.75409, -0.0886828l 2.74617,
 -0.159509l 2.73373, -0.230073l 2.71681, -0.30026l 2.69542, -0.369953l 2.66961, -0.439038l 2.6394, -0.507401l 2.60486, -0.574931l 2.56604, -0.641517l 2.52301, -0.707048l 2.47583, -0.771418l 2.42458, -0.83452l 2.36935, -0.896251l 2.31022, -0.956509l
 2.2473, -1.0152l 2.18069, -1.07221l 2.11049, -1.12747l 2.03682, -1.18088l 1.95981, -1.23234l 1.87958, -1.28178l 1.79626, -1.32911l 1.70999, -1.37426l 1.62091, -1.41716l 1.52917, -1.45772l 1.43491, -1.49589l 1.3383, -1.5316l 1.23949, -1.56479l
 1.13864, -1.59541l 1.03592, -1.62342l 0.931495, -1.64875l 0.825543, -1.67138l 0.718234, -1.69125l 0.609745, -1.70835l 0.500254, -1.72265l 0.389942, -1.73411l 0.278988, -1.74272l 0.167577, -1.74848l 0.0558895, -1.75135h -68.0315z" fill="#00ff55"/>
<path d="M87.1921,115.432l 1.66569, 1.39605l 1.75339, 1.35202l 1.8382, 1.30577l 1.92, 1.25738l 1.99864, 1.20692l 2.074, 1.15447l 2.14595, 1.10013l 2.21437, 1.04399l 2.27915, 0.986124l 2.34019, 0.926641l 2.39739, 0.865635l 2.45065, 0.803207l 2.49988,
 0.73946l 2.545, 0.674497l 2.58594, 0.608427l 2.62263, 0.541356l 2.65501, 0.473396l 2.68304, 0.404659l 2.70665, 0.335256l 2.72581, 0.265303l 2.7405, 0.194914l 2.75068, 0.124204l 2.75635, 0.0532904l 2.75748, -0.0177107l 2.75409, -0.0886828l 2.74617,
 -0.159509l 2.73373, -0.230073l 2.71681, -0.30026l 2.69542, -0.369953l 2.66961, -0.439038l 2.6394, -0.507401l 2.60486, -0.574931l 2.56604, -0.641517l 2.52301, -0.707048l 2.47583, -0.771418l 2.42458, -0.83452l 2.36935, -0.896251l 2.31022, -0.956509l
 2.2473, -1.0152l 2.18069, -1.07221l 2.11049, -1.12747l 2.03682, -1.18088l 1.95981, -1.23234l 1.87958, -1.28178l 1.79626, -1.32911l 1.70999, -1.37426l 1.62091, -1.41716l 1.52917, -1.45772l 1.43491, -1.49589l 1.3383, -1.5316l 1.23949, -1.56479l
 1.13864, -1.59541l 1.03592, -1.62342l 0.931495, -1.64875l 0.825543, -1.67138l 0.718234, -1.69125l 0.609745, -1.70835l 0.500254, -1.72265l 0.389942, -1.73411l 0.278988, -1.74272l 0.167577, -1.74848l 0.0558895, -1.75135h -68.0315l -55.0401, 25.4z"
 fill="none" stroke="black"/>
<text xml:space="preserve" x="211.56" y="88.4939" fill="black" font-size="6.05059" font-family="Helvetica">kaon*: 100579 (1.0 %)</text>
<text xml:space="preserve" x="210.141" y="80.9223" fill="black" font-size="6.05059" font-family="Helvetica">proton+: 449009 (4.5 %)</text>
<text xml:space="preserve" x="203.516" y="69.0915" fill="black" font-size="6.05059" font-family="Helvetica">proton-: 450782 (4.5 %)</text>
<text xml:space="preserve" x="191.212" y="58.6805" fill="black" font-size="6.05059" font-family="Helvetica">kaon-: 500106 (5.0 %)</text>
<text xml:space="preserve" x="173.702" y="50.6356" fill="black" font-size="6.05059" font-family="Helvetica">kaon+: 500351 (5.0 %)</text>
<text xml:space="preserve" x="29.367" y="63.886" fill="black" font-size="6.05059" font-family="Helvetica">pion+: 3999113 (40.0 %)</text>
<text xml:space="preserve" x="163.291" y="136.763" fill="black" font-size="6.05059" font-family="Helvetica">pion-: 4000060 (40.0 %)</text>
<text xml:space="preserve" x="66.7522" y="11.8307" fill="black" font-size="8.4711" font-family="Helvetica">Grafico B.1. Numero di particelle generate</text>
<rect x="289.634" y="3.60128" width="272.126" height="172.861" fill="white"/>
<rect x="316.846" y="20.8874" width="217.701" height="138.289" fill="white"/>
<rect x="316.846" y="20.8874" width="217.701" height="138.289" fill="none" stroke="black"/>
<rect x="316.846" y="20.8874" width="217.701" height="138.289" fill="white"/>
<rect x="316.846" y="20.8874" width="217.701" height="138.289" fill="none" stroke="black"/>
<path d="M316.846,159.176v -53.5262h 0.604724v 36.8131h 1.20945v -29.7182h 0.604724v -36.947h 0.604724v -8.29968h 0.604724v 13.5204h 0.604724v 47.3885h 0.604724v -39.7581h 0.604724v 19.4105h 0.604724v -20.6153h 0.604724v 14.993h 0.604724v -19.5444h
 0.604724v 10.7093h 0.604724v 8.43355h 0.604724v -11.5125h 0.604724v -63.0508h 0.604724v 76.0358h 0.604724v -21.5524h 0.604724v 25.4345h 0.604724v -3.88211h 0.604724v -11.2447h 0.604724v 20.0799h 0.604724v -40.8291h 0.604724v 47.924h 0.604724v
 -4.28371h 0.604724v -9.23674h 0.604724v -47.1208h 0.604724v 11.5125h 0.604724v 56.6252h 0.604724v -25.1668h 0.604724v 31.8601h 0.604724v -58.4994h 0.604724v 52.7431h 0.604724v -39.892h 0.604724v -19.946h 0.604724v 26.5054h 0.604724v 8.29968h
 0.604724v -15.3946h 0.604724v -22.4895h 0.604724v 14.8591h 0.604724v 36.0099h 0.604724v -41.4984h 0.604724v -2.40958h 0.604724v 59.5703h 0.604724v 6.02396h 0.604724v -21.2847h 0.604724v -36.947h 0.604724v 24.899h 0.604724v 14.5914h 0.604724v
 -8.70128h 0.604724v -63.7201h 0.604724v 14.993h 0.604724v 32.3955h 0.604724v -10.977h 0.604724v 22.4895h 0.604724v -29.9859h 0.604724v 29.9859h 0.604724v 30.5214h 0.604724v -41.3645h 0.604724v -2.54345h 0.604724v -10.5754h 0.604724v 25.97h 0.604724v
 0.535463h 0.604724v 7.09489h 0.604724v 19.4105h 0.604724v -10.1738h 0.604724v -12.0479h 0.604724v -46.4514h 0.604724v 3.88211h 0.604724v -4.81917h 0.604724v 5.0869h 0.604724v 28.2457h 0.604724v -29.3166h 0.604724v 42.9709h 0.604724v -36.6792h
 0.604724v 15.5284h 0.604724v -5.8901h 0.604724v 27.4425h 0.604724v -3.21278h 0.604724v -16.1978h 0.604724v 8.03195h 0.604724v -18.2057h 0.604724v 52.3415h 0.604724v -58.3655h 0.604724v 34.1358h 0.604724v -13.3866h 0.604724v -2.00799h 0.604724v
 -22.3556h 0.604724v -33.6003h 0.604724v 32.1278h 0.604724v 27.3086h 0.604724v -23.1588h 0.604724v 1.20479h 0.604724v -21.2847h 0.604724v 16.4655h 0.604724v -1.87412h 0.604724v 2.00799h 0.604724v 77.3744h 0.604724v -36.2776h 0.604724v -21.6863h
 0.604724v 21.2847h 0.604724v 13.922h 0.604724v -38.4195h 0.604724v -20.3476h 0.604724v 27.978h 0.604724v 0.401597h 0.604724v 0.535463h 0.604724v -6.96102h 0.604724v -7.36262h 0.604724v 30.5214h 0.604724v 7.63035h 0.604724v -42.5693h 0.604724v
 -16.1978h 0.604724v 83.6661h 0.604724v -27.3086h 0.604724v -65.1926h 0.604724v 63.3185h 0.604724v -0.937061h 0.604724v -14.8591h 0.604724v 8.03195h 0.604724v -46.1837h 0.604724v 13.922h 0.604724v 18.3396h 0.604724v -17.5364h 0.604724v -10.1738h
 0.604724v -0.803195h 0.604724v -9.10287h 0.604724v 18.2057h 0.604724v 11.6463h 0.604724v -26.5054h 0.604724v 52.3415h 0.604724v 21.5524h 0.604724v -60.2396h 0.604724v 11.6463h 0.604724v 37.3486h 0.604724v -19.0089h 0.604724v -21.8201h 0.604724v
 21.2847h 0.604724v -12.3157h 0.604724v 39.2227h 0.604724v -51.6722h 0.604724v 20.4815h 0.604724v 0.133866h 0.604724v 31.4585h 0.604724v -21.1508h 0.604724v 4.01597h 0.604724v -39.6243h 0.604724v 40.5613h 0.604724v -21.2847h 0.604724v -19.946h
 0.604724v 46.9869h 0.604724v -45.1128h 0.604724v 63.3185h 0.604724v -62.1137h 0.604724v 52.877h 0.604724v -8.56741h 0.604724v -37.3486h 0.604724v 29.1827h 0.604724v -25.8361h 0.604724v 23.1588h 0.604724v -15.5284h 0.604724v -20.8831h 0.604724v
 -0.133866h 0.604724v 46.5853h 0.604724v -15.2607h 0.604724v -33.3326h 0.604724v 18.3396h 0.604724v 4.28371h 0.604724v 37.7502h 0.604724v -35.7422h 0.604724v 35.3406h 0.604724v -50.869h 0.604724v 34.8051h 0.604724v 2.27572h 0.604724v -32.3955h
 0.604724v 10.8431h 0.604724v -10.8431h 0.604724v 31.3246h 0.604724v -42.7032h 0.604724v -5.62236h 0.604724v 38.4195h 0.604724v -5.0869h 0.604724v -20.8831h 0.604724v 30.2537h 0.604724v -20.6153h 0.604724v 40.0259h 0.604724v -45.2466h 0.604724v
 1.60639h 0.604724v 7.09489h 0.604724v -7.22875h 0.604724v 33.6003h 0.604724v -39.4904h 0.604724v 48.4594h 0.604724v -11.2447h 0.604724v -44.3096h 0.604724v 23.0249h 0.604724v -40.5613h 0.604724v 43.7741h 0.604724v -25.4345h 0.604724v 78.5792h
 0.604724v -70.1457h 0.604724v 38.0179h 0.604724v -13.3866h 0.604724v 39.7581h 0.604724v -32.6633h 0.604724v -63.3185h 0.604724v 37.7502h 0.604724v 26.6393h 0.604724v -31.4585h 0.604724v 22.0879h 0.604724v -21.0169h 0.604724v -14.1898h 0.604724v
 49.2626h 0.604724v -38.9549h 0.604724v 48.0578h 0.604724v -69.7441h 0.604724v 72.6891h 0.604724v -23.4265h 0.604724v -8.96901h 0.604724v -23.6942h 0.604724v 35.2067h 0.604724v -32.5294h 0.604724v -22.3556h 0.604724v 87.2805h 0.604724v -52.3415h
 0.604724v 1.33866h 0.604724v 23.5604h 0.604724v -21.4185h 0.604724v 23.5604h 0.604724v -52.877h 0.604724v 60.9089h 0.604724v -47.5224h 0.604724v 21.2847h 0.604724v -2.40958h 0.604724v 25.4345h 0.604724v -23.6942h 0.604724v 20.6153h 0.604724v
 -9.10287h 0.604724v -14.8591h 0.604724v 40.8291h 0.604724v -58.3655h 0.604724v -24.2297h 0.604724v 43.6403h 0.604724v -21.4185h 0.604724v 38.9549h 0.604724v -30.5214h 0.604724v 37.4824h 0.604724v -16.0639h 0.604724v -23.1588h 0.604724v -0.267732h
 0.604724v -8.83514h 0.604724v -17.5364h 0.604724v 49.5303h 0.604724v 8.43355h 0.604724v 10.4415h 0.604724v -42.1677h 0.604724v -2.27572h 0.604724v 25.7022h 0.604724v 4.55144h 0.604724v -11.1109h 0.604724v -6.42556h 0.604724v -8.43355h 0.604724v
 52.7431h 0.604724v -57.83h 0.604724v 26.1038h 0.604724v -17.8042h 0.604724v 13.1188h 0.604724v -13.3866h 0.604724v -15.6623h 0.604724v 34.5374h 0.604724v 12.4495h 0.604724v -14.8591h 0.604724v 7.89808h 0.604724v -37.3486h 0.604724v 37.2147h
 0.604724v 6.29169h 0.604724v -7.76422h 0.604724v -12.0479h 0.604724v -29.3166h 0.604724v 49.1287h 0.604724v -36.947h 0.604724v 8.03195h 0.604724v 28.3796h 0.604724v -26.6393h 0.604724v 14.1898h 0.604724v -26.1038h 0.604724v 14.7252h 0.604724v
 -10.8431h 0.604724v -8.03195h 0.604724v 28.3796h 0.604724v 9.50447h 0.604724v -28.7811h 0.604724v 37.3486h 0.604724v -33.0649h 0.604724v -4.6853h 0.604724v 27.8441h 0.604724v -46.853h 0.604724v 37.4824h 0.604724v -30.5214h 0.604724v 42.0339h
 0.604724v -20.8831h 0.604724v 34.8051h 0.604724v -12.5834h 0.604724v -20.2137h 0.604724v 9.23674h 0.604724v 5.22077h 0.604724v -1.47252h 0.604724v -9.37061h 0.604724v 20.3476h 0.604724v -10.3077h 0.604724v -44.845h 0.604724v 32.3955h 0.604724v
 12.1818h 0.604724v -57.5623h 0.604724v 36.947h 0.604724v 1.87412h 0.604724v 33.6003h 0.604724v -17.938h 0.604724v -11.3786h 0.604724v 5.0869h 0.604724v 11.9141h 0.604724v -60.2396h 0.604724v 29.8521h 0.604724v 15.3946h 0.604724v -22.8911h 0.604724v
 64.2556h 0.604724v -65.862h 0.604724v 37.6163h 0.604724v -17.5364h 0.604724v -2.54345h 0.604724v -25.1668h 0.604724v -31.7262h 0.604724v 13.2527h 0.604724v 58.3655h 0.604724v -0.133866h 0.604724v -10.4415h 0.604724v 34.6712h 0.604724v -65.5942h
 0.604724v 44.5773h 0.604724v -41.9h 0.604724v 29.0489h 0.604724v 12.4495h 0.604724v -14.7252h 0.604724v 10.3077h 0.604724v 14.993h 0.604724v -48.0578h 0.604724v 27.8441h 0.604724v -17.4026h 0.604724v 4.01597h 0.604724v -19.1428h 0.604724v 40.6952h
 0.604724v -34.5374h 0.604724v 43.2387h 0.604724v -44.9789h 0.604724v 18.0719h 0.604724v 11.9141h 0.604724v -19.4105h 0.604724v 17.2687h 0.604724v -3.34665h 0.604724v 65.9758z" fill="#00ffff"/>
<path d="M316.846,105.65h 0.604724v 36.8131h 1.20945v -29.7182h 0.604724v -36.947h 0.604724v -8.29968h 0.604724v 13.5204h 0.604724v 47.3885h 0.604724v -39.7581h 0.604724v 19.4105h 0.604724v -20.6153h 0.604724v 14.993h 0.604724v -19.5444h 0.604724v
 10.7093h 0.604724v 8.43355h 0.604724v -11.5125h 0.604724v -63.0508h 0.604724v 76.0358h 0.604724v -21.5524h 0.604724v 25.4345h 0.604724v -3.88211h 0.604724v -11.2447h 0.604724v 20.0799h 0.604724v -40.8291h 0.604724v 47.924h 0.604724v -4.28371h
 0.604724v -9.23674h 0.604724v -47.1208h 0.604724v 11.5125h 0.604724v 56.6252h 0.604724v -25.1668h 0.604724v 31.8601h 0.604724v -58.4994h 0.604724v 52.7431h 0.604724v -39.892h 0.604724v -19.946h 0.604724v 26.5054h 0.604724v 8.29968h 0.604724v
 -15.3946h 0.604724v -22.4895h 0.604724v 14.8591h 0.604724v 36.0099h 0.604724v -41.4984h 0.604724v -2.40958h 0.604724v 59.5703h 0.604724v 6.02396h 0.604724v -21.2847h 0.604724v -36.947h 0.604724v 24.899h 0.604724v 14.5914h 0.604724v -8.70128h
 0.604724v -63.7201h 0.604724v 14.993h 0.604724v 32.3955h 0.604724v -10.977h 0.604724v 22.4895h 0.604724v -29.9859h 0.604724v 29.9859h 0.604724v 30.5214h 0.604724v -41.3645h 0.604724v -2.54345h 0.604724v -10.5754h 0.604724v 25.97h 0.604724v 0.535463h
 0.604724v 7.09489h 0.604724v 19.4105h 0.604724v -10.1738h 0.604724v -12.0479h 0.604724v -46.4514h 0.604724v 3.88211h 0.604724v -4.81917h 0.604724v 5.0869h 0.604724v 28.2457h 0.604724v -29.3166h 0.604724v 42.9709h 0.604724v -36.6792h 0.604724v
 15.5284h 0.604724v -5.8901h 0.604724v 27.4425h 0.604724v -3.21278h 0.604724v -16.1978h 0.604724v 8.03195h 0.604724v -18.2057h 0.604724v 52.3415h 0.604724v -58.3655h 0.604724v 34.1358h 0.604724v -13.3866h 0.604724v -2.00799h 0.604724v -22.3556h
 0.604724v -33.6003h 0.604724v 32.1278h 0.604724v 27.3086h 0.604724v -23.1588h 0.604724v 1.20479h 0.604724v -21.2847h 0.604724v 16.4655h 0.604724v -1.87412h 0.604724v 2.00799h 0.604724v 77.3744h 0.604724v -36.2776h 0.604724v -21.6863h 0.604724v
 21.2847h 0.604724v 13.922h 0.604724v -38.4195h 0.604724v -20.3476h 0.604724v 27.978h 0.604724v 0.401597h 0.604724v 0.535463h 0.604724v -6.96102h 0.604724v -7.36262h 0.604724v 30.5214h 0.604724v 7.63035h 0.604724v -42.5693h 0.604724v -16.1978h
 0.604724v 83.6661h 0.604724v -27.3086h 0.604724v -65.1926h 0.604724v 63.3185h 0.604724v -0.937061h 0.604724v -14.8591h 0.604724v 8.03195h 0.604724v -46.1837h 0.604724v 13.922h 0.604724v 18.3396h 0.604724v -17.5364h 0.604724v -10.1738h 0.604724v
 -0.803195h 0.604724v -9.10287h 0.604724v 18.2057h 0.604724v 11.6463h 0.604724v -26.5054h 0.604724v 52.3415h 0.604724v 21.5524h 0.604724v -60.2396h 0.604724v 11.6463h 0.604724v 37.3486h 0.604724v -19.0089h 0.604724v -21.8201h 0.604724v 21.2847h
 0.604724v -12.3157h 0.604724v 39.2227h 0.604724v -51.6722h 0.604724v 20.4815h 0.604724v 0.133866h 0.604724v 31.4585h 0.604724v -21.1508h 0.604724v 4.01597h 0.604724v -39.6243h 0.604724v 40.5613h 0.604724v -21.2847h 0.604724v -19.946h 0.604724v
 46.9869h 0.604724v -45.1128h 0.604724v 63.3185h 0.604724v -62.1137h 0.604724v 52.877h 0.604724v -8.56741h 0.604724v -37.3486h 0.604724v 29.1827h 0.604724v -25.8361h 0.604724v 23.1588h 0.604724v -15.5284h 0.604724v -20.8831h 0.604724v -0.133866h
 0.604724v 46.5853h 0.604724v -15.2607h 0.604724v -33.3326h 0.604724v 18.3396h 0.604724v 4.28371h 0.604724v 37.7502h 0.604724v -35.7422h 0.604724v 35.3406h 0.604724v -50.869h 0.604724v 34.8051h 0.604724v 2.27572h 0.604724v -32.3955h 0.604724v
 10.8431h 0.604724v -10.8431h 0.604724v 31.3246h 0.604724v -42.7032h 0.604724v -5.62236h 0.604724v 38.4195h 0.604724v -5.0869h 0.604724v -20.8831h 0.604724v 30.2537h 0.604724v -20.6153h 0.604724v 40.0259h 0.604724v -45.2466h 0.604724v 1.60639h
 0.604724v 7.09489h 0.604724v -7.22875h 0.604724v 33.6003h 0.604724v -39.4904h 0.604724v 48.4594h 0.604724v -11.2447h 0.604724v -44.3096h 0.604724v 23.0249h 0.604724v -40.5613h 0.604724v 43.7741h 0.604724v -25.4345h 0.604724v 78.5792h 0.604724v
 -70.1457h 0.604724v 38.0179h 0.604724v -13.3866h 0.604724v 39.7581h 0.604724v -32.6633h 0.604724v -63.3185h 0.604724v 37.7502h 0.604724v 26.6393h 0.604724v -31.4585h 0.604724v 22.0879h 0.604724v -21.0169h 0.604724v -14.1898h 0.604724v 49.2626h
 0.604724v -38.9549h 0.604724v 48.0578h 0.604724v -69.7441h 0.604724v 72.6891h 0.604724v -23.4265h 0.604724v -8.96901h 0.604724v -23.6942h 0.604724v 35.2067h 0.604724v -32.5294h 0.604724v -22.3556h 0.604724v 87.2805h 0.604724v -52.3415h 0.604724v
 1.33866h 0.604724v 23.5604h 0.604724v -21.4185h 0.604724v 23.5604h 0.604724v -52.877h 0.604724v 60.9089h 0.604724v -47.5224h 0.604724v 21.2847h 0.604724v -2.40958h 0.604724v 25.4345h 0.604724v -23.6942h 0.604724v 20.6153h 0.604724v -9.10287h
 0.604724v -14.8591h 0.604724v 40.8291h 0.604724v -58.3655h 0.604724v -24.2297h 0.604724v 43.6403h 0.604724v -21.4185h 0.604724v 38.9549h 0.604724v -30.5214h 0.604724v 37.4824h 0.604724v -16.0639h 0.604724v -23.1588h 0.604724v -0.267732h 0.604724v
 -8.83514h 0.604724v -17.5364h 0.604724v 49.5303h 0.604724v 8.43355h 0.604724v 10.4415h 0.604724v -42.1677h 0.604724v -2.27572h 0.604724v 25.7022h 0.604724v 4.55144h 0.604724v -11.1109h 0.604724v -6.42556h 0.604724v -8.43355h 0.604724v 52.7431h
 0.604724v -57.83h 0.604724v 26.1038h 0.604724v -17.8042h 0.604724v 13.1188h 0.604724v -13.3866h 0.604724v -15.6623h 0.604724v 34.5374h 0.604724v 12.4495h 0.604724v -14.8591h 0.604724v 7.89808h 0.604724v -37.3486h 0.604724v 37.2147h 0.604724v
 6.29169h 0.604724v -7.76422h 0.604724v -12.0479h 0.604724v -29.3166h 0.604724v 49.1287h 0.604724v -36.947h 0.604724v 8.03195h 0.604724v 28.3796h 0.604724v -26.6393h 0.604724v 14.1898h 0.604724v -26.1038h 0.604724v 14.7252h 0.604724v -10.8431h
 0.604724v -8.03195h 0.604724v 28.3796h 0.604724v 9.50447h 0.604724v -28.7811h 0.604724v 37.3486h 0.604724v -33.0649h 0.604724v -4.6853h 0.604724v 27.8441h 0.604724v -46.853h 0.604724v 37.4824h 0.604724v -30.5214h 0.604724v 42.0339h 0.604724v
 -20.8831h 0.604724v 34.8051h 0.604724v -12.5834h 0.604724v -20.2137h 0.604724v 9.23674h 0.604724v 5.22077h 0.604724v -1.47252h 0.604724v -9.37061h 0.604724v 20.3476h 0.604724v -10.3077h 0.604724v -44.845h 0.604724v 32.3955h 0.604724v 12.1818h
 0.604724v -57.5623h 0.604724v 36.947h 0.604724v 1.87412h 0.604724v 33.6003h 0.604724v -17.938h 0.604724v -11.3786h 0.604724v 5.0869h 0.604724v 11.9141h 0.604724v -60.2396h 0.604724v 29.8521h 0.604724v 15.3946h 0.604724v -22.8911h 0.604724v 64.2556h
 0.604724v -65.862h 0.604724v 37.6163h 0.604724v -17.5364h 0.604724v -2.54345h 0.604724v -25.1668h 0.604724v -31.7262h 0.604724v 13.2527h 0.604724v 58.3655h 0.604724v -0.133866h 0.604724v -10.4415h 0.604724v 34.6712h 0.604724v -65.5942h 0.604724v
 44.5773h 0.604724v -41.9h 0.604724v 29.0489h 0.604724v 12.4495h 0.604724v -14.7252h 0.604724v 10.3077h 0.604724v 14.993h 0.604724v -48.0578h 0.604724v 27.8441h 0.604724v -17.4026h 0.604724v 4.01597h 0.604724v -19.1428h 0.604724v 40.6952h 0.604724v
 -34.5374h 0.604724v 43.2387h 0.604724v -44.9789h 0.604724v 18.0719h 0.604724v 11.9141h 0.604724v -19.4105h 0.604724v 17.2687h 0.604724v -3.34665h 0.604724" fill="none" stroke="#000099"/>
<path d="M317.935,95.773h 106.673" fill="none" stroke="#ff0000" stroke-width="2"/>
<path d="M424.608,95.773h 106.673" fill="none" stroke="#ff0000" stroke-width="2"/>
<path d="M531.282,95.773h 2.17701" fill="none" stroke="#ff0000" stroke-width="2"/>
<rect x="458.352" y="14.8373" width="97.9654" height="55.3156" fill="white"/>
<path d="M458.352,70.1529h 97.9654" fill="none" stroke="black"/>
<path d="M556.317,70.1529v -55.3156" fill="none" stroke="black"/>
<path d="M556.317,14.8373h -97.9654" fill="none" stroke="black"/>
<path d="M458.352,14.8373v 55.3156" fill="none" stroke="black"/>
<text xml:space="preserve" x="475.623" y="21.7686" fill="black" font-size="8.2814" font-family="Helvetica">AzimuthAngleDist</text>
<path d="M458.352,24.0565h 97.9654" fill="none" stroke="black"/>
<text xml:space="preserve" x="462.845" y="31.2332" fill="black" font-size="6.79691" font-family="Helvetica">Entries </text>
<text xml:space="preserve" x="514.427" y="31.2332" fill="black" font-size="6.79691" font-family="Helvetica">          1e+07</text>
<text xml:space="preserve" x="462.845" y="40.6978" fill="black" font-size="6.79691" font-family="Helvetica">Mean  </text>
<text xml:space="preserve" x="518.213" y="40.6978" fill="black" font-size="6.79691" font-family="Helvetica"> 0.0005737</text>
<text xml:space="preserve" x="514.427" y="40.6978" fill="black" font-size="6.79691" font-family="Times">&#0177;</text>
<text xml:space="preserve" x="492.186" y="40.6978" fill="black" font-size="6.79691" font-family="Helvetica">  3.142 </text>
<text xml:space="preserve" x="468.997" y="49.2159" fill="black" font-size="6.79691" font-family="Helvetica"> / ndf </text>
<text xml:space="preserve" x="466.631" y="46.8497" fill="black" font-size="4.69794" font-family="Helvetica">2</text>
<text xml:space="preserve" x="462.845" y="49.2159" fill="black" font-size="6.79691" font-family="Times">&#0967;</text>
<text xml:space="preserve" x="516.32" y="49.6891" fill="black" font-size="6.79691" font-family="Helvetica"> 357.6 / 359</text>
<text xml:space="preserve" x="462.845" y="59.1537" fill="black" font-size="6.79691" font-family="Helvetica">Prob  </text>
<text xml:space="preserve" x="529.098" y="59.1537" fill="black" font-size="6.79691" font-family="Helvetica"> 0.5103</text>
<text xml:space="preserve" x="462.845" y="67.1986" fill="black" font-size="6.79691" font-family="Helvetica">p0       </text>
<text xml:space="preserve" x="518.213" y="68.1451" fill="black" font-size="6.79691" font-family="Helvetica"> 8.784e+00</text>
<text xml:space="preserve" x="514.427" y="68.1451" fill="black" font-size="6.79691" font-family="Times">&#0177;</text>
<text xml:space="preserve" x="478.935" y="68.1451" fill="black" font-size="6.79691" font-family="Helvetica"> 2.778e+04 </text>
<path d="M316.846,159.176h 217.701" fill="none" stroke="black"/>
<path d="M316.846,155.028v 4.14867" fill="none" stroke="black"/>
<path d="M323.776,157.102v 2.07434" fill="none" stroke="black"/>
<path d="M330.706,157.102v 2.07434" fill="none" stroke="black"/>
<path d="M337.635,157.102v 2.07434" fill="none" stroke="black"/>
<path d="M344.565,157.102v 2.07434" fill="none" stroke="black"/>
<path d="M351.495,155.028v 4.14867" fill="none" stroke="black"/>
<path d="M358.424,157.102v 2.07434" fill="none" stroke="black"/>
<path d="M365.354,157.102v 2.07434" fill="none" stroke="black"/>
<path d="M372.284,157.102v 2.07434" fill="none" stroke="black"/>
<path d="M379.213,157.102v 2.07434" fill="none" stroke="black"/>
<path d="M386.143,155.028v 4.14867" fill="none" stroke="black"/>
<path d="M393.072,157.102v 2.07434" fill="none" stroke="black"/>
<path d="M400.002,157.102v 2.07434" fill="none" stroke="black"/>
<path d="M406.932,157.102v 2.07434" fill="none" stroke="black"/>
<path d="M413.861,157.102v 2.07434" fill="none" stroke="black"/>
<path d="M420.791,155.028v 4.14867" fill="none" stroke="black"/>
<path d="M427.721,157.102v 2.07434" fill="none" stroke="black"/>
<path d="M434.65,157.102v 2.07434" fill="none" stroke="black"/>
<path d="M441.58,157.102v 2.07434" fill="none" stroke="black"/>
<path d="M448.509,157.102v 2.07434" fill="none" stroke="black"/>
<path d="M455.439,155.028v 4.14867" fill="none" stroke="black"/>
<path d="M462.369,157.102v 2.07434" fill="none" stroke="black"/>
<path d="M469.298,157.102v 2.07434" fill="none" stroke="black"/>
<path d="M476.228,157.102v 2.07434" fill="none" stroke="black"/>
<path d="M483.158,157.102v 2.07434" fill="none" stroke="black"/>
<path d="M490.087,155.028v 4.14867" fill="none" stroke="black"/>
<path d="M497.017,157.102v 2.07434" fill="none" stroke="black"/>
<path d="M503.947,157.102v 2.07434" fill="none" stroke="black"/>
<path d="M510.876,157.102v 2.07434" fill="none" stroke="black"/>
<path d="M517.806,157.102v 2.07434" fill="none" stroke="black"/>
<path d="M524.735,155.028v 4.14867" fill="none" stroke="black"/>
<path d="M524.735,155.028v 4.14867" fill="none" stroke="black"/>
<path d="M531.665,157.102v 2.07434" fill="none" stroke="black"/>
<text xml:space="preserve" x="314.724" y="164.684" fill="black" font-size="6.05059" font-family="Helvetica">0</text>
<text xml:space="preserve" x="349.743" y="164.684" fill="black" font-size="6.05059" font-family="Helvetica">1</text>
<text xml:space="preserve" x="383.816" y="164.684" fill="black" font-size="6.05059" font-family="Helvetica">2</text>
<text xml:space="preserve" x="418.835" y="164.684" fill="black" font-size="6.05059" font-family="Helvetica">3</text>
<text xml:space="preserve" x="453.381" y="164.684" fill="black" font-size="6.05059" font-family="Helvetica">4</text>
<text xml:space="preserve" x="487.927" y="164.684" fill="black" font-size="6.05059" font-family="Helvetica">5</text>
<text xml:space="preserve" x="522.472" y="164.684" fill="black" font-size="6.05059" font-family="Helvetica">6</text>
<text xml:space="preserve" x="475.623" y="170.363" fill="black" font-size="6.05059" font-family="Helvetica">Valore angolo (radianti)</text>
<path d="M316.846,159.176v -138.289" fill="none" stroke="black"/>
<path d="M323.377,146.212h -6.53102" fill="none" stroke="black"/>
<path d="M320.112,139.518h -3.26551" fill="none" stroke="black"/>
<path d="M320.112,132.825h -3.26551" fill="none" stroke="black"/>
<path d="M320.112,126.132h -3.26551" fill="none" stroke="black"/>
<path d="M323.377,119.438h -6.53102" fill="none" stroke="black"/>
<path d="M320.112,112.745h -3.26551" fill="none" stroke="black"/>
<path d="M320.112,106.052h -3.26551" fill="none" stroke="black"/>
<path d="M320.112,99.3585h -3.26551" fill="none" stroke="black"/>
<path d="M323.377,92.6653h -6.53102" fill="none" stroke="black"/>
<path d="M320.112,85.972h -3.26551" fill="none" stroke="black"/>
<path d="M320.112,79.2787h -3.26551" fill="none" stroke="black"/>
<path d="M320.112,72.5854h -3.26551" fill="none" stroke="black"/>
<path d="M323.377,65.8921h -6.53102" fill="none" stroke="black"/>
<path d="M320.112,59.1988h -3.26551" fill="none" stroke="black"/>
<path d="M320.112,52.5055h -3.26551" fill="none" stroke="black"/>
<path d="M320.112,45.8122h -3.26551" fill="none" stroke="black"/>
<path d="M323.377,39.1189h -6.53102" fill="none" stroke="black"/>
<path d="M323.377,146.212h -6.53102" fill="none" stroke="black"/>
<path d="M320.112,152.905h -3.26551" fill="none" stroke="black"/>
<path d="M323.377,39.1189h -6.53102" fill="none" stroke="black"/>
<path d="M320.112,32.4256h -3.26551" fill="none" stroke="black"/>
<path d="M320.112,25.7324h -3.26551" fill="none" stroke="black"/>
<text xml:space="preserve" x="299.581" y="148.121" fill="black" font-size="6.05059" font-family="Helvetica">27400</text>
<text xml:space="preserve" x="299.581" y="121.62" fill="black" font-size="6.05059" font-family="Helvetica">27600</text>
<text xml:space="preserve" x="299.581" y="94.6459" fill="black" font-size="6.05059" font-family="Helvetica">27800</text>
<text xml:space="preserve" x="299.581" y="68.1451" fill="black" font-size="6.05059" font-family="Helvetica">28000</text>
<text xml:space="preserve" x="299.581" y="41.171" fill="black" font-size="6.05059" font-family="Helvetica">28200</text>
<g transform="rotate(-90,295.322,70.9845)">
<text xml:space="preserve" x="295.322" y="70.9845" fill="black" font-size="6.05059" font-family="Helvetica">Numero occorrenze</text>
</g>
<rect x="458.352" y="14.8373" width="97.9654" height="55.3156" fill="white"/>
<path d="M458.352,70.1529h 97.9654" fill="none" stroke="black"/>
<path d="M556.317,70.1529v -55.3156" fill="none" stroke="black"/>
<path d="M556.317,14.8373h -97.9654" fill="none" stroke="black"/>
<path d="M458.352,14.8373v 55.3156" fill="none" stroke="black"/>
<text xml:space="preserve" x="475.623" y="21.7686" fill="black" font-size="8.2814" font-family="Helvetica">AzimuthAngleDist</text>
<path d="M458.352,24.0565h 97.9654" fill="none" stroke="black"/>
<text xml:space="preserve" x="462.845" y="31.2332" fill="black" font-size="6.79691" font-family="Helvetica">Entries </text>
<text xml:space="preserve" x="514.427" y="31.2332" fill="black" font-size="6.79691" font-family="Helvetica">          1e+07</text>
<text xml:space="preserve" x="462.845" y="40.6978" fill="black" font-size="6.79691" font-family="Helvetica">Mean  </text>
<text xml:space="preserve" x="518.213" y="40.6978" fill="black" font-size="6.79691" font-family="Helvetica"> 0.0005737</text>
<text xml:space="preserve" x="514.427" y="40.6978" fill="black" font-size="6.79691" font-family="Times">&#0177;</text>
<text xml:space="preserve" x="492.186" y="40.6978" fill="black" font-size="6.79691" font-family="Helvetica">  3.142 </text>
<text xml:space="preserve" x="468.997" y="49.2159" fill="black" font-size="6.79691" font-family="Helvetica"> / ndf </text>
<text xml:space="preserve" x="466.631" y="46.8497" fill="black" font-size="4.69794" font-family="Helvetica">2</text>
<text xml:space="preserve" x="462.845" y="49.2159" fill="black" font-size="6.79691" font-family="Times">&#0967;</text>
<text xml:space="preserve" x="516.32" y="49.6891" fill="black" font-size="6.79691" font-family="Helvetica"> 357.6 / 359</text>
<text xml:space="preserve" x="462.845" y="59.1537" fill="black" font-size="6.79691" font-family="Helvetica">Prob  </text>
<text xml:space="preserve" x="529.098" y="59.1537" fill="black" font-size="6.79691" font-family="Helvetica"> 0.5103</text>
<text xml:space="preserve" x="462.845" y="67.1986" fill="black" font-size="6.79691" font-family="Helvetica">p0       </text>
<text xml:space="preserve" x="518.213" y="68.1451" fill="black" font-size="6.79691" font-family="Helvetica"> 8.784e+00</text>
<text xml:space="preserve" x="514.427" y="68.1451" fill="black" font-size="6.79691" font-family="Times">&#0177;</text>
<text xml:space="preserve" x="478.935" y="68.1451" fill="black" font-size="6.79691" font-family="Helvetica"> 2.778e+04 </text>
<text xml:space="preserve" x="338.386" y="11.3575" fill="black" font-size="7.11862" font-family="Helvetica">Grafico B.2. Distribuzione degli angoli azimutali e relativo fit</text>
<rect x="6.16929" y="183.665" width="272.126" height="172.861" fill="white"/>
<rect x="33.3819" y="200.951" width="217.701" height="138.289" fill="white"/>
<rect x="33.3819" y="200.951" width="217.701" height="138.289" fill="none" stroke="black"/>
<rect x="33.3819" y="200.951" width="217.701" height="138.289" fill="white"/>
<rect x="33.3819" y="200.951" width="217.701" height="138.289" fill="none" stroke="black"/>
<path d="M33.3819,339.24v -70.0838h 0.604724v 16.4402h 0.604724v -4.50582h 0.604724v -34.9505h 0.604724v -14.6135h 0.604724v 50.2947h 0.604724v -10.2294h 0.604724v -17.7797h 0.604724v 18.2668h 0.604724v -12.9086h 0.604724v 29.7141h 0.604724v -18.754h
 0.604724v 13.1521h 0.604724v -6.3325h 0.604724v 17.2926h 0.604724v -13.8828h 0.604724v 47.8591h 0.604724v -75.1376h 0.604724v 0.121779h 0.604724v 39.9435h 0.604724v -30.8101h 0.604724v 8.76808h 0.604724v -9.01164h 0.604724v 17.9015h 0.604724v
 -9.86409h 0.604724v -22.042h 0.604724v -13.8828h 0.604724v 13.3957h 0.604724v 6.81962h 0.604724v 2.92269h 0.604724v 21.5549h 0.604724v 2.43558h 0.604724v -27.0349h 0.604724v 25.33h 0.604724v 7.30673h 0.604724v -42.9879h 0.604724v 9.86409h 0.604724v
 10.5948h 0.604724v 15.8313h 0.604724v -40.187h 0.604724v -20.3371h 0.604724v 42.8662h 0.604724v -21.4331h 0.604724v 8.40274h 0.604724v 25.5736h 0.604724v -12.9086h 0.604724v 24.234h 0.604724v 2.3138h 0.604724v -12.4214h 0.604724v -36.1683h 0.604724v
 21.1895h 0.604724v 15.3441h 0.604724v -33.3674h 0.604724v 43.5968h 0.604724v -16.6837h 0.604724v 31.419h 0.604724v -23.0162h 0.604724v 5.84539h 0.604724v -23.5033h 0.604724v 19.4846h 0.604724v -13.6392h 0.604724v 0.608894h 0.604724v -1.58313h
 0.604724v 16.5619h 0.604724v -1.09601h 0.604724v -6.81962h 0.604724v -6.81962h 0.604724v 0.121779h 0.604724v 18.754h 0.604724v -31.9061h 0.604724v 26.3042h 0.604724v -13.0303h 0.604724v 6.9414h 0.604724v -19.4846h 0.604724v 45.7889h 0.604724v
 1.21779h 0.604724v -26.6696h 0.604724v -27.522h 0.604724v 35.5594h 0.604724v -4.87116h 0.604724v -23.8687h 0.604724v 19.3628h 0.604724v -38.9692h 0.604724v 45.0582h 0.604724v -2.55736h 0.604724v -7.18495h 0.604724v -0.608894h 0.604724v 25.8171h
 0.604724v -19.2411h 0.604724v 13.8828h 0.604724v 18.0233h 0.604724v -51.0254h 0.604724v 29.7141h 0.604724v 3.65337h 0.604724v 16.1966h 0.604724v -50.7818h 0.604724v 24.5993h 0.604724v 15.5877h 0.604724v 3.65337h 0.604724v -68.1962h 0.604724v
 46.3978h 0.604724v 20.5806h 0.604724v -36.4119h 0.604724v -22.4073h 0.604724v 48.468h 0.604724v -16.0748h 0.604724v 13.2739h 0.604724v -37.3861h 0.604724v 14.0046h 0.604724v 14.7352h 0.604724v -0.852452h 0.604724v -20.2153h 0.604724v -7.42851h
 0.604724v 23.5033h 0.604724v -9.86409h 0.604724v 29.9576h 0.604724v -9.62053h 0.604724v -24.9647h 0.604724v 25.6953h 0.604724v -41.7702h 0.604724v 5.72361h 0.604724v 11.2037h 0.604724v -3.28803h 0.604724v 24.1122h 0.604724v -15.5877h 0.604724v
 -5.96717h 0.604724v -28.4963h 0.604724v 0.121779h 0.604724v 32.1496h 0.604724v -9.98587h 0.604724v 17.049h 0.604724v -9.86409h 0.604724v 23.138h 0.604724v -68.1962h 0.604724v 69.0486h 0.604724v -28.7398h 0.604724v 11.0819h 0.604724v 8.6463h
 0.604724v -3.53159h 0.604724v -16.5619h 0.604724v 11.569h 0.604724v 13.8828h 0.604724v -9.86409h 0.604724v 13.3957h 0.604724v -20.2153h 0.604724v 12.5432h 0.604724v 4.14048h 0.604724v -59.1845h 0.604724v 62.7161h 0.604724v -4.0187h 0.604724v
 -17.4144h 0.604724v 0.487116h 0.604724v 9.37698h 0.604724v -12.665h 0.604724v 31.6625h 0.604724v -22.6509h 0.604724v 32.7585h 0.604724v -16.1966h 0.604724v 5.23649h 0.604724v -18.5104h 0.604724v -9.98587h 0.604724v -5.11471h 0.604724v -2.07024h
 0.604724v 33.3674h 0.604724v -8.88986h 0.604724v -6.69784h 0.604724v 19.4846h 0.604724v 26.5478h 0.604724v -87.6808h 0.604724v 45.7889h 0.604724v -9.01164h 0.604724v -19.3628h 0.604724v 15.3441h 0.604724v 36.899h 0.604724v -17.7797h 0.604724v
 -5.11471h 0.604724v -25.5736h 0.604724v 5.48005h 0.604724v 33.2456h 0.604724v -55.2876h 0.604724v 8.88986h 0.604724v -10.1076h 0.604724v 48.468h 0.604724v 40.5524h 0.604724v -41.7702h 0.604724v 29.5923h 0.604724v -83.5403h 0.604724v 16.8055h
 0.604724v 30.4447h 0.604724v 34.707h 0.604724v -43.7186h 0.604724v 2.92269h 0.604724v 1.58313h 0.604724v 2.55736h 0.604724v -33.1239h 0.604724v 25.4518h 0.604724v 18.754h 0.604724v 28.618h 0.604724v -25.9389h 0.604724v -1.21779h 0.604724v -4.0187h
 0.604724v -4.50582h 0.604724v -6.3325h 0.604724v 2.67914h 0.604724v 2.19202h 0.604724v 24.234h 0.604724v -19.6064h 0.604724v -14.9788h 0.604724v 27.8874h 0.604724v -28.618h 0.604724v 12.0561h 0.604724v 0.365337h 0.604724v -8.76808h 0.604724v
 -26.9131h 0.604724v 58.6974h 0.604724v -17.9015h 0.604724v 27.2785h 0.604724v -39.6999h 0.604724v -11.569h 0.604724v 14.7352h 0.604724v 17.5362h 0.604724v -29.1052h 0.604724v 32.6367h 0.604724v -53.2174h 0.604724v 50.7818h 0.604724v 8.03741h
 0.604724v -23.3815h 0.604724v -25.4518h 0.604724v 27.7656h 0.604724v -22.7727h 0.604724v 33.9763h 0.604724v 13.1521h 0.604724v -72.9456h 0.604724v 66.3695h 0.604724v -40.4306h 0.604724v 51.3907h 0.604724v -61.3766h 0.604724v 12.4214h 0.604724v
 -2.07024h 0.604724v -4.50582h 0.604724v 22.1638h 0.604724v -10.9601h 0.604724v 26.7914h 0.604724v 44.6929h 0.604724v -72.5802h 0.604724v 4.26226h 0.604724v -10.7165h 0.604724v 13.8828h 0.604724v 48.5898h 0.604724v -38.3604h 0.604724v -39.9435h
 0.604724v 52.6085h 0.604724v -41.5266h 0.604724v 32.515h 0.604724v -3.40981h 0.604724v -2.55736h 0.604724v 1.21779h 0.604724v 5.48005h 0.604724v -35.3159h 0.604724v 23.3815h 0.604724v -4.38404h 0.604724v 39.2128h 0.604724v -38.8475h 0.604724v
 9.37698h 0.604724v -22.8944h 0.604724v -4.6276h 0.604724v 27.7656h 0.604724v -25.9389h 0.604724v 26.3042h 0.604724v 1.09601h 0.604724v 11.0819h 0.604724v -32.0278h 0.604724v 6.3325h 0.604724v 8.40274h 0.604724v 25.8171h 0.604724v -31.5407h 0.604724v
 24.9647h 0.604724v -43.1097h 0.604724v 25.8171h 0.604724v -20.0935h 0.604724v 23.5033h 0.604724v -17.9015h 0.604724v -0.974231h 0.604724v 44.4493h 0.604724v -25.9389h 0.604724v -34.5852h 0.604724v 26.1825h 0.604724v 5.23649h 0.604724v -12.665h
 0.604724v -14.7352h 0.604724v 20.5806h 0.604724v -22.6509h 0.604724v 22.4073h 0.604724v -19.7282h 0.604724v 8.15919h 0.604724v 44.084h 0.604724v -7.42851h 0.604724v -19.3628h 0.604724v -17.7797h 0.604724v 35.6812h 0.604724v -16.0748h 0.604724v
 -4.38404h 0.604724v 15.2224h 0.604724v -11.9343h 0.604724v -45.0582h 0.604724v 24.5993h 0.604724v 21.9202h 0.604724v -21.3113h 0.604724v -9.37698h 0.604724v 58.0885h 0.604724v -66.2477h 0.604724v 31.6625h 0.604724v 3.53159h 0.604724v 15.7095h
 0.604724v -22.042h 0.604724v 27.522h 0.604724v -2.19202h 0.604724v -19.85h 0.604724v 12.0561h 0.604724v 21.9202h 0.604724v -42.8662h 0.604724v 11.3254h 0.604724v -14.0046h 0.604724v -4.38404h 0.604724v 16.0748h 0.604724v -0.852452h 0.604724v
 10.3512h 0.604724v -24.9647h 0.604724v -46.6413h 0.604724v 59.1845h 0.604724v 2.3138h 0.604724v 11.2037h 0.604724v 20.946h 0.604724v -16.9273h 0.604724v -16.3184h 0.604724v -2.3138h 0.604724v 32.7585h 0.604724v -54.0698h 0.604724v 3.04447h 0.604724v
 27.1567h 0.604724v -1.09601h 0.604724v -30.9318h 0.604724v 1.33957h 0.604724v 9.86409h 0.604724v 18.5104h 0.604724v -13.0303h 0.604724v 22.1638h 0.604724v -7.06318h 0.604724v -17.2926h 0.604724v 35.4377h 0.604724v -79.0345h 0.604724v 50.4165h
 0.604724v 16.0748h 0.604724v -14.4917h 0.604724v 3.65337h 0.604724v 1.21779h 0.604724v -16.1966h 0.604724v 19.7282h 0.604724v -18.1451h 0.604724v 10.5948h 0.604724v 73.0064z" fill="#00ffff"/>
<path d="M33.3819,269.157h 0.604724v 16.4402h 0.604724v -4.50582h 0.604724v -34.9505h 0.604724v -14.6135h 0.604724v 50.2947h 0.604724v -10.2294h 0.604724v -17.7797h 0.604724v 18.2668h 0.604724v -12.9086h 0.604724v 29.7141h 0.604724v -18.754h
 0.604724v 13.1521h 0.604724v -6.3325h 0.604724v 17.2926h 0.604724v -13.8828h 0.604724v 47.8591h 0.604724v -75.1376h 0.604724v 0.121779h 0.604724v 39.9435h 0.604724v -30.8101h 0.604724v 8.76808h 0.604724v -9.01164h 0.604724v 17.9015h 0.604724v
 -9.86409h 0.604724v -22.042h 0.604724v -13.8828h 0.604724v 13.3957h 0.604724v 6.81962h 0.604724v 2.92269h 0.604724v 21.5549h 0.604724v 2.43558h 0.604724v -27.0349h 0.604724v 25.33h 0.604724v 7.30673h 0.604724v -42.9879h 0.604724v 9.86409h 0.604724v
 10.5948h 0.604724v 15.8313h 0.604724v -40.187h 0.604724v -20.3371h 0.604724v 42.8662h 0.604724v -21.4331h 0.604724v 8.40274h 0.604724v 25.5736h 0.604724v -12.9086h 0.604724v 24.234h 0.604724v 2.3138h 0.604724v -12.4214h 0.604724v -36.1683h 0.604724v
 21.1895h 0.604724v 15.3441h 0.604724v -33.3674h 0.604724v 43.5968h 0.604724v -16.6837h 0.604724v 31.419h 0.604724v -23.0162h 0.604724v 5.84539h 0.604724v -23.5033h 0.604724v 19.4846h 0.604724v -13.6392h 0.604724v 0.608894h 0.604724v -1.58313h
 0.604724v 16.5619h 0.604724v -1.09601h 0.604724v -6.81962h 0.604724v -6.81962h 0.604724v 0.121779h 0.604724v 18.754h 0.604724v -31.9061h 0.604724v 26.3042h 0.604724v -13.0303h 0.604724v 6.9414h 0.604724v -19.4846h 0.604724v 45.7889h 0.604724v
 1.21779h 0.604724v -26.6696h 0.604724v -27.522h 0.604724v 35.5594h 0.604724v -4.87116h 0.604724v -23.8687h 0.604724v 19.3628h 0.604724v -38.9692h 0.604724v 45.0582h 0.604724v -2.55736h 0.604724v -7.18495h 0.604724v -0.608894h 0.604724v 25.8171h
 0.604724v -19.2411h 0.604724v 13.8828h 0.604724v 18.0233h 0.604724v -51.0254h 0.604724v 29.7141h 0.604724v 3.65337h 0.604724v 16.1966h 0.604724v -50.7818h 0.604724v 24.5993h 0.604724v 15.5877h 0.604724v 3.65337h 0.604724v -68.1962h 0.604724v
 46.3978h 0.604724v 20.5806h 0.604724v -36.4119h 0.604724v -22.4073h 0.604724v 48.468h 0.604724v -16.0748h 0.604724v 13.2739h 0.604724v -37.3861h 0.604724v 14.0046h 0.604724v 14.7352h 0.604724v -0.852452h 0.604724v -20.2153h 0.604724v -7.42851h
 0.604724v 23.5033h 0.604724v -9.86409h 0.604724v 29.9576h 0.604724v -9.62053h 0.604724v -24.9647h 0.604724v 25.6953h 0.604724v -41.7702h 0.604724v 5.72361h 0.604724v 11.2037h 0.604724v -3.28803h 0.604724v 24.1122h 0.604724v -15.5877h 0.604724v
 -5.96717h 0.604724v -28.4963h 0.604724v 0.121779h 0.604724v 32.1496h 0.604724v -9.98587h 0.604724v 17.049h 0.604724v -9.86409h 0.604724v 23.138h 0.604724v -68.1962h 0.604724v 69.0486h 0.604724v -28.7398h 0.604724v 11.0819h 0.604724v 8.6463h
 0.604724v -3.53159h 0.604724v -16.5619h 0.604724v 11.569h 0.604724v 13.8828h 0.604724v -9.86409h 0.604724v 13.3957h 0.604724v -20.2153h 0.604724v 12.5432h 0.604724v 4.14048h 0.604724v -59.1845h 0.604724v 62.7161h 0.604724v -4.0187h 0.604724v
 -17.4144h 0.604724v 0.487116h 0.604724v 9.37698h 0.604724v -12.665h 0.604724v 31.6625h 0.604724v -22.6509h 0.604724v 32.7585h 0.604724v -16.1966h 0.604724v 5.23649h 0.604724v -18.5104h 0.604724v -9.98587h 0.604724v -5.11471h 0.604724v -2.07024h
 0.604724v 33.3674h 0.604724v -8.88986h 0.604724v -6.69784h 0.604724v 19.4846h 0.604724v 26.5478h 0.604724v -87.6808h 0.604724v 45.7889h 0.604724v -9.01164h 0.604724v -19.3628h 0.604724v 15.3441h 0.604724v 36.899h 0.604724v -17.7797h 0.604724v
 -5.11471h 0.604724v -25.5736h 0.604724v 5.48005h 0.604724v 33.2456h 0.604724v -55.2876h 0.604724v 8.88986h 0.604724v -10.1076h 0.604724v 48.468h 0.604724v 40.5524h 0.604724v -41.7702h 0.604724v 29.5923h 0.604724v -83.5403h 0.604724v 16.8055h
 0.604724v 30.4447h 0.604724v 34.707h 0.604724v -43.7186h 0.604724v 2.92269h 0.604724v 1.58313h 0.604724v 2.55736h 0.604724v -33.1239h 0.604724v 25.4518h 0.604724v 18.754h 0.604724v 28.618h 0.604724v -25.9389h 0.604724v -1.21779h 0.604724v -4.0187h
 0.604724v -4.50582h 0.604724v -6.3325h 0.604724v 2.67914h 0.604724v 2.19202h 0.604724v 24.234h 0.604724v -19.6064h 0.604724v -14.9788h 0.604724v 27.8874h 0.604724v -28.618h 0.604724v 12.0561h 0.604724v 0.365337h 0.604724v -8.76808h 0.604724v
 -26.9131h 0.604724v 58.6974h 0.604724v -17.9015h 0.604724v 27.2785h 0.604724v -39.6999h 0.604724v -11.569h 0.604724v 14.7352h 0.604724v 17.5362h 0.604724v -29.1052h 0.604724v 32.6367h 0.604724v -53.2174h 0.604724v 50.7818h 0.604724v 8.03741h
 0.604724v -23.3815h 0.604724v -25.4518h 0.604724v 27.7656h 0.604724v -22.7727h 0.604724v 33.9763h 0.604724v 13.1521h 0.604724v -72.9456h 0.604724v 66.3695h 0.604724v -40.4306h 0.604724v 51.3907h 0.604724v -61.3766h 0.604724v 12.4214h 0.604724v
 -2.07024h 0.604724v -4.50582h 0.604724v 22.1638h 0.604724v -10.9601h 0.604724v 26.7914h 0.604724v 44.6929h 0.604724v -72.5802h 0.604724v 4.26226h 0.604724v -10.7165h 0.604724v 13.8828h 0.604724v 48.5898h 0.604724v -38.3604h 0.604724v -39.9435h
 0.604724v 52.6085h 0.604724v -41.5266h 0.604724v 32.515h 0.604724v -3.40981h 0.604724v -2.55736h 0.604724v 1.21779h 0.604724v 5.48005h 0.604724v -35.3159h 0.604724v 23.3815h 0.604724v -4.38404h 0.604724v 39.2128h 0.604724v -38.8475h 0.604724v
 9.37698h 0.604724v -22.8944h 0.604724v -4.6276h 0.604724v 27.7656h 0.604724v -25.9389h 0.604724v 26.3042h 0.604724v 1.09601h 0.604724v 11.0819h 0.604724v -32.0278h 0.604724v 6.3325h 0.604724v 8.40274h 0.604724v 25.8171h 0.604724v -31.5407h 0.604724v
 24.9647h 0.604724v -43.1097h 0.604724v 25.8171h 0.604724v -20.0935h 0.604724v 23.5033h 0.604724v -17.9015h 0.604724v -0.974231h 0.604724v 44.4493h 0.604724v -25.9389h 0.604724v -34.5852h 0.604724v 26.1825h 0.604724v 5.23649h 0.604724v -12.665h
 0.604724v -14.7352h 0.604724v 20.5806h 0.604724v -22.6509h 0.604724v 22.4073h 0.604724v -19.7282h 0.604724v 8.15919h 0.604724v 44.084h 0.604724v -7.42851h 0.604724v -19.3628h 0.604724v -17.7797h 0.604724v 35.6812h 0.604724v -16.0748h 0.604724v
 -4.38404h 0.604724v 15.2224h 0.604724v -11.9343h 0.604724v -45.0582h 0.604724v 24.5993h 0.604724v 21.9202h 0.604724v -21.3113h 0.604724v -9.37698h 0.604724v 58.0885h 0.604724v -66.2477h 0.604724v 31.6625h 0.604724v 3.53159h 0.604724v 15.7095h
 0.604724v -22.042h 0.604724v 27.522h 0.604724v -2.19202h 0.604724v -19.85h 0.604724v 12.0561h 0.604724v 21.9202h 0.604724v -42.8662h 0.604724v 11.3254h 0.604724v -14.0046h 0.604724v -4.38404h 0.604724v 16.0748h 0.604724v -0.852452h 0.604724v
 10.3512h 0.604724v -24.9647h 0.604724v -46.6413h 0.604724v 59.1845h 0.604724v 2.3138h 0.604724v 11.2037h 0.604724v 20.946h 0.604724v -16.9273h 0.604724v -16.3184h 0.604724v -2.3138h 0.604724v 32.7585h 0.604724v -54.0698h 0.604724v 3.04447h 0.604724v
 27.1567h 0.604724v -1.09601h 0.604724v -30.9318h 0.604724v 1.33957h 0.604724v 9.86409h 0.604724v 18.5104h 0.604724v -13.0303h 0.604724v 22.1638h 0.604724v -7.06318h 0.604724v -17.2926h 0.604724v 35.4377h 0.604724v -79.0345h 0.604724v 50.4165h
 0.604724v 16.0748h 0.604724v -14.4917h 0.604724v 3.65337h 0.604724v 1.21779h 0.604724v -16.1966h 0.604724v 19.7282h 0.604724v -18.1451h 0.604724v 10.5948h 0.604724" fill="none" stroke="#000099"/>
<path d="M34.4704,269.785h 106.673" fill="none" stroke="#ff0000" stroke-width="2"/>
<path d="M141.144,269.785h 106.673" fill="none" stroke="#ff0000" stroke-width="2"/>
<path d="M247.817,269.785h 2.17701" fill="none" stroke="#ff0000" stroke-width="2"/>
<rect x="174.887" y="194.901" width="97.9654" height="55.3156" fill="white"/>
<path d="M174.887,250.217h 97.9654" fill="none" stroke="black"/>
<path d="M272.853,250.217v -55.3156" fill="none" stroke="black"/>
<path d="M272.853,194.901h -97.9654" fill="none" stroke="black"/>
<path d="M174.887,194.901v 55.3156" fill="none" stroke="black"/>
<text xml:space="preserve" x="196.89" y="201.596" fill="black" font-size="8.2814" font-family="Helvetica">PolarAngleDist</text>
<path d="M174.887,204.12h 97.9654" fill="none" stroke="black"/>
<text xml:space="preserve" x="179.381" y="211.534" fill="black" font-size="6.79691" font-family="Helvetica">Entries </text>
<text xml:space="preserve" x="230.963" y="211.534" fill="black" font-size="6.79691" font-family="Helvetica">          1e+07</text>
<text xml:space="preserve" x="179.381" y="220.525" fill="black" font-size="6.79691" font-family="Helvetica">Mean  </text>
<text xml:space="preserve" x="234.749" y="220.525" fill="black" font-size="6.79691" font-family="Helvetica"> 0.0002868</text>
<text xml:space="preserve" x="230.963" y="220.525" fill="black" font-size="6.79691" font-family="Times">&#0177;</text>
<text xml:space="preserve" x="209.668" y="220.525" fill="black" font-size="6.79691" font-family="Helvetica">  1.571 </text>
<text xml:space="preserve" x="185.533" y="229.516" fill="black" font-size="6.79691" font-family="Helvetica"> / ndf </text>
<text xml:space="preserve" x="183.167" y="227.15" fill="black" font-size="4.69794" font-family="Helvetica">2</text>
<text xml:space="preserve" x="179.381" y="229.516" fill="black" font-size="6.79691" font-family="Times">&#0967;</text>
<text xml:space="preserve" x="232.856" y="229.99" fill="black" font-size="6.79691" font-family="Helvetica"> 337.2 / 359</text>
<text xml:space="preserve" x="179.381" y="238.981" fill="black" font-size="6.79691" font-family="Helvetica">Prob  </text>
<text xml:space="preserve" x="245.633" y="238.981" fill="black" font-size="6.79691" font-family="Helvetica"> 0.7896</text>
<text xml:space="preserve" x="179.381" y="247.499" fill="black" font-size="6.79691" font-family="Helvetica">p0       </text>
<text xml:space="preserve" x="234.749" y="248.446" fill="black" font-size="6.79691" font-family="Helvetica"> 8.784e+00</text>
<text xml:space="preserve" x="230.963" y="248.446" fill="black" font-size="6.79691" font-family="Times">&#0177;</text>
<text xml:space="preserve" x="195.471" y="248.446" fill="black" font-size="6.79691" font-family="Helvetica"> 2.778e+04 </text>
<path d="M33.3819,339.24h 217.701" fill="none" stroke="black"/>
<path d="M33.3819,335.092v 4.14867" fill="none" stroke="black"/>
<path d="M40.3115,337.166v 2.07434" fill="none" stroke="black"/>
<path d="M47.2412,337.166v 2.07434" fill="none" stroke="black"/>
<path d="M54.1708,337.166v 2.07434" fill="none" stroke="black"/>
<path d="M61.1004,337.166v 2.07434" fill="none" stroke="black"/>
<path d="M68.03,335.092v 4.14867" fill="none" stroke="black"/>
<path d="M74.9597,337.166v 2.07434" fill="none" stroke="black"/>
<path d="M81.8893,337.166v 2.07434" fill="none" stroke="black"/>
<path d="M88.8189,337.166v 2.07434" fill="none" stroke="black"/>
<path d="M95.7486,337.166v 2.07434" fill="none" stroke="black"/>
<path d="M102.678,335.092v 4.14867" fill="none" stroke="black"/>
<path d="M109.608,337.166v 2.07434" fill="none" stroke="black"/>
<path d="M116.537,337.166v 2.07434" fill="none" stroke="black"/>
<path d="M123.467,337.166v 2.07434" fill="none" stroke="black"/>
<path d="M130.397,337.166v 2.07434" fill="none" stroke="black"/>
<path d="M137.326,335.092v 4.14867" fill="none" stroke="black"/>
<path d="M144.256,337.166v 2.07434" fill="none" stroke="black"/>
<path d="M151.186,337.166v 2.07434" fill="none" stroke="black"/>
<path d="M158.115,337.166v 2.07434" fill="none" stroke="black"/>
<path d="M165.045,337.166v 2.07434" fill="none" stroke="black"/>
<path d="M171.975,335.092v 4.14867" fill="none" stroke="black"/>
<path d="M178.904,337.166v 2.07434" fill="none" stroke="black"/>
<path d="M185.834,337.166v 2.07434" fill="none" stroke="black"/>
<path d="M192.763,337.166v 2.07434" fill="none" stroke="black"/>
<path d="M199.693,337.166v 2.07434" fill="none" stroke="black"/>
<path d="M206.623,335.092v 4.14867" fill="none" stroke="black"/>
<path d="M213.552,337.166v 2.07434" fill="none" stroke="black"/>
<path d="M220.482,337.166v 2.07434" fill="none" stroke="black"/>
<path d="M227.412,337.166v 2.07434" fill="none" stroke="black"/>
<path d="M234.341,337.166v 2.07434" fill="none" stroke="black"/>
<path d="M241.271,335.092v 4.14867" fill="none" stroke="black"/>
<path d="M241.271,335.092v 4.14867" fill="none" stroke="black"/>
<path d="M248.2,337.166v 2.07434" fill="none" stroke="black"/>
<text xml:space="preserve" x="31.2599" y="344.511" fill="black" font-size="6.05059" font-family="Helvetica">0</text>
<text xml:space="preserve" x="63.4395" y="344.511" fill="black" font-size="6.05059" font-family="Helvetica">0.5</text>
<text xml:space="preserve" x="100.825" y="344.511" fill="black" font-size="6.05059" font-family="Helvetica">1</text>
<text xml:space="preserve" x="133.004" y="344.511" fill="black" font-size="6.05059" font-family="Helvetica">1.5</text>
<text xml:space="preserve" x="169.916" y="344.511" fill="black" font-size="6.05059" font-family="Helvetica">2</text>
<text xml:space="preserve" x="202.096" y="344.511" fill="black" font-size="6.05059" font-family="Helvetica">2.5</text>
<text xml:space="preserve" x="239.008" y="344.511" fill="black" font-size="6.05059" font-family="Helvetica">3</text>
<text xml:space="preserve" x="192.158" y="350.663" fill="black" font-size="6.05059" font-family="Helvetica">Valore angolo (radianti)</text>
<path d="M33.3819,339.24v -138.289" fill="none" stroke="black"/>
<path d="M39.9129,315.676h -6.53102" fill="none" stroke="black"/>
<path d="M36.6474,309.587h -3.26551" fill="none" stroke="black"/>
<path d="M36.6474,303.498h -3.26551" fill="none" stroke="black"/>
<path d="M36.6474,297.409h -3.26551" fill="none" stroke="black"/>
<path d="M39.9129,291.32h -6.53102" fill="none" stroke="black"/>
<path d="M36.6474,285.231h -3.26551" fill="none" stroke="black"/>
<path d="M36.6474,279.142h -3.26551" fill="none" stroke="black"/>
<path d="M36.6474,273.054h -3.26551" fill="none" stroke="black"/>
<path d="M39.9129,266.965h -6.53102" fill="none" stroke="black"/>
<path d="M36.6474,260.876h -3.26551" fill="none" stroke="black"/>
<path d="M36.6474,254.787h -3.26551" fill="none" stroke="black"/>
<path d="M36.6474,248.698h -3.26551" fill="none" stroke="black"/>
<path d="M39.9129,242.609h -6.53102" fill="none" stroke="black"/>
<path d="M36.6474,236.52h -3.26551" fill="none" stroke="black"/>
<path d="M36.6474,230.431h -3.26551" fill="none" stroke="black"/>
<path d="M36.6474,224.342h -3.26551" fill="none" stroke="black"/>
<path d="M39.9129,218.253h -6.53102" fill="none" stroke="black"/>
<path d="M39.9129,315.676h -6.53102" fill="none" stroke="black"/>
<path d="M36.6474,321.765h -3.26551" fill="none" stroke="black"/>
<path d="M36.6474,327.854h -3.26551" fill="none" stroke="black"/>
<path d="M36.6474,333.943h -3.26551" fill="none" stroke="black"/>
<path d="M39.9129,218.253h -6.53102" fill="none" stroke="black"/>
<path d="M36.6474,212.164h -3.26551" fill="none" stroke="black"/>
<path d="M36.6474,206.075h -3.26551" fill="none" stroke="black"/>
<text xml:space="preserve" x="16.1166" y="318.01" fill="black" font-size="6.05059" font-family="Helvetica">27400</text>
<text xml:space="preserve" x="16.1166" y="293.402" fill="black" font-size="6.05059" font-family="Helvetica">27600</text>
<text xml:space="preserve" x="16.1166" y="269.268" fill="black" font-size="6.05059" font-family="Helvetica">27800</text>
<text xml:space="preserve" x="16.1166" y="244.66" fill="black" font-size="6.05059" font-family="Helvetica">28000</text>
<text xml:space="preserve" x="16.1166" y="220.525" fill="black" font-size="6.05059" font-family="Helvetica">28200</text>
<g transform="rotate(-90,11.8575,250.812)">
<text xml:space="preserve" x="11.8575" y="250.812" fill="black" font-size="6.05059" font-family="Helvetica">Numero occorrenze</text>
</g>
<rect x="174.887" y="194.901" width="97.9654" height="55.3156" fill="white"/>
<path d="M174.887,250.217h 97.9654" fill="none" stroke="black"/>
<path d="M272.853,250.217v -55.3156" fill="none" stroke="black"/>
<path d="M272.853,194.901h -97.9654" fill="none" stroke="black"/>
<path d="M174.887,194.901v 55.3156" fill="none" stroke="black"/>
<text xml:space="preserve" x="196.89" y="201.596" fill="black" font-size="8.2814" font-family="Helvetica">PolarAngleDist</text>
<path d="M174.887,204.12h 97.9654" fill="none" stroke="black"/>
<text xml:space="preserve" x="179.381" y="211.534" fill="black" font-size="6.79691" font-family="Helvetica">Entries </text>
<text xml:space="preserve" x="230.963" y="211.534" fill="black" font-size="6.79691" font-family="Helvetica">          1e+07</text>
<text xml:space="preserve" x="179.381" y="220.525" fill="black" font-size="6.79691" font-family="Helvetica">Mean  </text>
<text xml:space="preserve" x="234.749" y="220.525" fill="black" font-size="6.79691" font-family="Helvetica"> 0.0002868</text>
<text xml:space="preserve" x="230.963" y="220.525" fill="black" font-size="6.79691" font-family="Times">&#0177;</text>
<text xml:space="preserve" x="209.668" y="220.525" fill="black" font-size="6.79691" font-family="Helvetica">  1.571 </text>
<text xml:space="preserve" x="185.533" y="229.516" fill="black" font-size="6.79691" font-family="Helvetica"> / ndf </text>
<text xml:space="preserve" x="183.167" y="227.15" fill="black" font-size="4.69794" font-family="Helvetica">2</text>
<text xml:space="preserve" x="179.381" y="229.516" fill="black" font-size="6.79691" font-family="Times">&#0967;</text>
<text xml:space="preserve" x="232.856" y="229.99" fill="black" font-size="6.79691" font-family="Helvetica"> 337.2 / 359</text>
<text xml:space="preserve" x="179.381" y="238.981" fill="black" font-size="6.79691" font-family="Helvetica">Prob  </text>
<text xml:space="preserve" x="245.633" y="238.981" fill="black" font-size="6.79691" font-family="Helvetica"> 0.7896</text>
<text xml:space="preserve" x="179.381" y="247.499" fill="black" font-size="6.79691" font-family="Helvetica">p0       </text>
<text xml:space="preserve" x="234.749" y="248.446" fill="black" font-size="6.79691" font-family="Helvetica"> 8.784e+00</text>
<text xml:space="preserve" x="230.963" y="248.446" fill="black" font-size="6.79691" font-family="Times">&#0177;</text>
<text xml:space="preserve" x="195.471" y="248.446" fill="black" font-size="6.79691" font-family="Helvetica"> 2.778e+04 </text>
<text xml:space="preserve" x="53.975" y="191.658" fill="black" font-size="7.51165" font-family="Helvetica">Grafico B.3. Distribuzione degli angoli polari e relativo fit</text>
<rect x="289.634" y="183.665" width="272.126" height="172.861" fill="white"/>
<rect x="316.846" y="200.951" width="217.701" height="138.289" fill="white"/>
<rect x="316.846" y="200.951" width="217.701" height="138.289" fill="none" stroke="black"/>
<rect x="316.846" y="200.951" width="217.701" height="138.289" fill="white"/>
<rect x="316.846" y="200.951" width="217.701" height="138.289" fill="none" stroke="black"/>
<path d="M316.846,339.24v -131.704h 0.435402v 1.35727h 0.435402v 1.15884h 0.435402v 2.02664h 0.435402v 0.162713h 0.435402v 1.00009h 0.435402v 2.29783h 0.435402v 1.28716h 0.435402v 0.935271h 0.435402v 1.62846h 0.435402v 0.281772h 0.435402v 2.81507h
 0.435402v 0.586033h 0.435402v 1.34007h 0.435402v 0.617782h 0.435402v 0.914105h 0.435402v 0.71832h 0.435402v 1.72899h 0.435402v 1.29509h 0.435402v -0.387602h 0.435402v 2.68411h 0.435402v 0.351884h 0.435402v 1.67873h 0.435402v 0.314844h 0.435402v
 1.53321h 0.435402v 0.437871h 0.435402v 1.33346h 0.435402v 0.47888h 0.435402v 1.20249h 0.435402v 1.23292h 0.435402v 0.527826h 0.435402v 1.02919h 0.435402v 1.55834h 0.435402v 0.906168h 0.435402v 0.906168h 0.435402v 1.01993h 0.435402v 0.806952h
 0.435402v 1.03846h 0.435402v 1.00274h 0.435402v 0.76462h 0.435402v 1.06756h 0.435402v 0.694508h 0.435402v 0.93924h 0.435402v 0.23018h 0.435402v 1.52924h 0.435402v 0.730226h 0.435402v 0.556929h 0.435402v 1.49749h 0.435402v -0.0224888h 0.435402v
 1.07153h 0.435402v 1.03316h 0.435402v 1.27128h 0.435402v -0.0476234h 0.435402v 1.29906h 0.435402v 0.288386h 0.435402v 1.30171h 0.435402v 0.357176h 0.435402v 0.817535h 0.435402v 1.02655h 0.435402v 0.877065h 0.435402v 0.301615h 0.435402v 1.14958h
 0.435402v 0.441839h 0.435402v 0.719643h 0.435402v 0.620427h 0.435402v 0.447131h 0.435402v 0.916751h 0.435402v 1.22233h 0.435402v -0.0119059h 0.435402v 0.576772h 0.435402v 1.3361h 0.435402v 0.2024h 0.435402v 0.814889h 0.435402v 0.785786h 0.435402v
 0.16139h 0.435402v 0.0806952h 0.435402v 1.15619h 0.435402v 0.448454h 0.435402v 0.52518h 0.435402v 0.744777h 0.435402v 0.760652h 0.435402v 0.768589h 0.435402v 0.244731h 0.435402v 1.05565h 0.435402v -0.269866h 0.435402v 1.18397h 0.435402v 1.17339h
 0.435402v -0.0912782h 0.435402v 0.978926h 0.435402v -0.150807h 0.435402v 0.735517h 0.435402v 0.613813h 0.435402v 0.591324h 0.435402v 0.337333h 0.435402v 0.57545h 0.435402v 0.629687h 0.435402v 0.384956h 0.435402v 0.597938h 0.435402v 0.242086h
 0.435402v 0.410091h 0.435402v 0.840024h 0.435402v 0.289709h 0.435402v 1.05168h 0.435402v -0.010583h 0.435402v 0.820181h 0.435402v 0.444485h 0.435402v 0.628365h 0.435402v -0.175942h 0.435402v 0.675988h 0.435402v 0.168005h 0.435402v 0.207691h
 0.435402v 0.964374h 0.435402v 0.75536h 0.435402v 0.251346h 0.435402v 0.0529149h 0.435402v 0.436548h 0.435402v 0.4974h 0.435402v 0.567512h 0.435402v -0.178588h 0.435402v 0.697154h 0.435402v 0.795046h 0.435402v 0.146839h 0.435402v 0.296323h 0.435402v
 0.215628h 0.435402v 1.10989h 0.435402v -0.171973h 0.435402v 0.924688h 0.435402v -0.0304261h 0.435402v -0.0846638h 0.435402v 0.521212h 0.435402v 0.596616h 0.435402v 0.657468h 0.435402v 0.380987h 0.435402v -0.272512h 0.435402v 0.849284h 0.435402v
 0.277803h 0.435402v 0.100538h 0.435402v 0.738163h 0.435402v 0.168005h 0.435402v 0.100538h 0.435402v 0.129642h 0.435402v 0.608521h 0.435402v 0.776526h 0.435402v -0.521212h 0.435402v 0.822827h 0.435402v -0.0145516h 0.435402v 0.412736h 0.435402v
 0.444485h 0.435402v 0.0582064h 0.435402v 0.652176h 0.435402v 0.33601h 0.435402v 0.083341h 0.435402v 0.312198h 0.435402v 0.271189h 0.435402v 0.64953h 0.435402v -0.119059h 0.435402v 0.386279h 0.435402v 0.0383633h 0.435402v 0.521212h 0.435402v
 0.333364h 0.435402v 0.153453h 0.435402v 0.35453h 0.435402v 0.32675h 0.435402v 0.695831h 0.435402v -0.425965h 0.435402v 0.423319h 0.435402v -0.0859867h 0.435402v 0.566189h 0.435402v 0.306906h 0.435402v 0.177265h 0.435402v 0.0754037h 0.435402v
 0.558252h 0.435402v -0.00661436h 0.435402v 0.279126h 0.435402v 0.370404h 0.435402v -0.0886325h 0.435402v 0.346593h 0.435402v 0.0978926h 0.435402v 0.265897h 0.435402v 0.435225h 0.435402v 0.190494h 0.435402v -0.0436548h 0.435402v 0.556929h 0.435402v
 -0.0926011h 0.435402v 0.0357176h 0.435402v 0.542378h 0.435402v 0.158745h 0.435402v 0.235471h 0.435402v 0.240763h 0.435402v 0.473588h 0.435402v -0.0185202h 0.435402v -0.0502692h 0.435402v 0.51592h 0.435402v 0.218274h 0.435402v 0.136256h 0.435402v
 0.083341h 0.435402v 0.496077h 0.435402v -0.183879h 0.435402v -0.00396862h 0.435402v 0.197108h 0.435402v 0.210337h 0.435402v 0.140225h 0.435402v 0.498723h 0.435402v 0.199754h 0.435402v -0.119059h 0.435402v -0.0198431h 0.435402v 0.830764h 0.435402v
 -0.0582064h 0.435402v 0.0634979h 0.435402v 0.424642h 0.435402v -0.186525h 0.435402v 0.325427h 0.435402v 0.0317489h 0.435402v 0.309552h 0.435402v 0.195785h 0.435402v -0.0542378h 0.435402v -0.0502692h 0.435402v 0.36379h 0.435402v 0.238117h 0.435402v
 0.260606h 0.435402v 0.0185202h 0.435402v 0.198431h 0.435402v -0.0952468h 0.435402v 0.433902h 0.435402v 0.173296h 0.435402v -0.148162h 0.435402v 0.129642h 0.435402v 0.476234h 0.435402v -0.010583h 0.435402v 0.13361h 0.435402v 0.0396862h 0.435402v
 0.308229h 0.435402v -0.051592h 0.435402v 0.125673h 0.435402v 0.145516h 0.435402v 0.317489h 0.435402v 0.12435h 0.435402v 0.156099h 0.435402v 0.0317489h 0.435402v 0.062175h 0.435402v 0.0198431h 0.435402v 0.277803h 0.435402v 0.0859867h 0.435402v
 0.0502692h 0.435402v -0.0343947h 0.435402v 0.137579h 0.435402v 0.197108h 0.435402v 0.0740809h 0.435402v 0.134933h 0.435402v -0.0608521h 0.435402v 0.358498h 0.435402v -0.0251346h 0.435402v 0.271189h 0.435402v 0.209014h 0.435402v -0.0238117h 0.435402v
 0.138902h 0.435402v 0.0648208h 0.435402v -0.0304261h 0.435402v 0.206368h 0.435402v 0.00396862h 0.435402v 0.316167h 0.435402v -0.0251346h 0.435402v 0.0542378h 0.435402v 0.226211h 0.435402v -0.0674665h 0.435402v -0.010583h 0.435402v 0.174619h
 0.435402v 0.238117h 0.435402v 0.0185202h 0.435402v 0.0463005h 0.435402v 0.268543h 0.435402v 0.0145516h 0.435402v -0.0489463h 0.435402v 0.120381h 0.435402v 0.129642h 0.435402v 0.0926011h 0.435402v 0.164036h 0.435402v 0.0119059h 0.435402v 0.136256h
 0.435402v 0.0529149h 0.435402v 0.0502692h 0.435402v 0.168005h 0.435402v -0.00396862h 0.435402v 0.0529149h 0.435402v 0.0648208h 0.435402v 0.0238117h 0.435402v 0.277803h 0.435402v -0.0859867h 0.435402v 0.051592h 0.435402v 0.101861h 0.870803v 0.181234h
 0.435402v -0.0476234h 0.435402v 0.212982h 0.435402v 0.111121h 0.435402v 0.0846638h 0.435402v -0.0238117h 0.435402v 0.11509h 0.435402v 0.109798h 0.435402v -0.0899553h 0.435402v 0.11509h 0.435402v 0.185202h 0.435402v 0.00793724h 0.435402v 0.00793724h
 0.435402v 0.165359h 0.435402v -0.189171h 0.435402v 0.406122h 0.435402v -0.22092h 0.435402v 0.198431h 0.435402v -0.00793724h 0.435402v 0.0978926h 0.435402v -0.00396862h 0.435402v -0.0119059h 0.435402v 0.132287h 0.435402v 0.021166h 0.435402v 0.246054h
 0.435402v -0.0264575h 0.435402v -0.132287h 0.435402v 0.175942h 0.435402v 0.349238h 0.435402v -0.144193h 0.435402v -0.0238117h 0.435402v 0.138902h 0.435402v 0.235471h 0.435402v -0.320135h 0.435402v 0.222243h 0.435402v -0.0476234h 0.435402v 0.0608521h
 0.435402v 0.0859867h 0.435402v 0.0806952h 0.435402v 0.117736h 0.435402v -0.0886325h 0.435402v 0.128319h 0.435402v 0.0436548h 0.435402v -0.0714351h 0.435402v 0.195785h 0.435402v 0.0291032h 0.435402v -0.0648208h 0.435402v 0.0436548h 0.435402v
 0.0899553h 0.435402v 0.137579h 0.435402v 0.0224888h 0.435402v -0.0158745h 0.435402v 0.203722h 0.435402v -0.117736h 0.435402v 0.0502692h 0.435402v 0.0502692h 0.435402v 0.0886325h 0.435402v -0.0291032h 0.435402v 0.0185202h 0.435402v 0.265897h
 0.435402v -0.182556h 0.435402v 0.0926011h 0.435402v 0.0952468h 0.435402v 0.0568835h 0.435402v -0.0489463h 0.435402v -0.0383633h 0.435402v 0.134933h 0.435402v 0.145516h 0.435402v -0.0198431h 0.435402v -0.0370404h 0.435402v 0.15213h 0.435402v
 -0.120381h 0.435402v 0.0396862h 0.435402v 0.134933h 0.435402v -0.144193h 0.435402v 0.021166h 0.435402v 0.216951h 0.435402v -0.0158745h 0.435402v 0.0899553h 0.435402v -0.0277803h 0.435402v 0.0489463h 0.435402v 0.0846638h 0.435402v -0.0965697h
 0.435402v 0.177265h 0.435402v -0.210337h 0.435402v 0.178588h 0.435402v -0.00793724h 0.435402v 0.21166h 0.435402v -0.0608521h 0.435402v 0.0449777h 0.435402v 0.0251346h 0.435402v -0.0185202h 0.435402v -0.0370404h 0.435402v 0.146839h 0.435402v
 0.0291032h 0.435402v 0.101861h 0.435402v 0.00264575h 0.435402v -0.041009h 0.435402v -0.0251346h 0.435402v 0.0238117h 0.435402v 0.0198431h 0.435402v 0.0674665h 0.435402v 0.0264575h 0.435402v -0.0383633h 0.435402v 0.112444h 0.435402v -0.0978926h
 0.435402v 0.198431h 0.435402v -0.0132287h 0.870803v -0.0423319h 0.435402v 0.137579h 0.435402v -0.0873096h 0.435402v 0.166682h 0.435402v -0.0264575h 0.435402v -0.123027h 0.435402v 0.0873096h 0.435402v 0.00132287h 0.435402v 0.0952468h 0.435402v
 0.0608521h 0.435402v -0.107153h 0.435402v 0.00264575h 0.435402v 0.0978926h 0.435402v 0.113767h 0.435402v -0.0383633h 0.435402v 0.0780495h 0.435402v -0.0912782h 0.435402v -0.00529149h 0.435402v 0.111121h 0.435402v 0.0926011h 0.435402v -0.00793724h
 0.435402v -0.041009h 0.435402v -0.0542378h 0.435402v 0.0780495h 0.435402v 0.0238117h 0.435402v 0.126996h 0.435402v -0.112444h 0.435402v 0.0793724h 0.435402v 0.00529149h 0.435402v -0.0145516h 0.435402v 0.010583h 0.435402v 0.130964h 0.435402v
 -0.0965697h 0.435402v 0.0396862h 0.435402v -0.072758h 0.435402v 0.0132287h 0.435402v 0.11509h 0.435402v -0.0502692h 0.435402v 0.0158745h 0.435402v 0.051592h 0.435402v 0.0291032h 0.435402v -0.0383633h 0.435402v 0.10583h 0.435402v -0.0238117h
 0.435402v -0.0714351h 0.435402v 0.093924h 0.435402v 0.0767266h 0.435402v 0.0383633h 0.435402v -0.0555606h 0.435402v 0.0912782h 0.435402v -0.0846638h 0.435402v 0.0198431h 0.435402v -0.0145516h 0.435402v 0.0582064h 0.435402v 0.00661436h 0.435402v
 -0.103184h 0.435402v 0.199754h 0.435402v -0.0238117h 0.435402v -0.0449777h 0.435402v 0.0145516h 0.435402v 0.137579h 0.435402v -0.0608521h 0.435402v -0.072758h 0.435402v 0.0674665h 0.435402v 0.072758h 0.435402v -0.0132287h 0.435402v -0.041009h
 0.435402v 0.041009h 0.435402v 0.0145516h 0.435402v 0.0529149h 0.435402v -0.0542378h 0.435402v 0.021166h 0.435402v 0.0449777h 0.435402v -0.125673h 0.435402v 0.120381h 0.435402v 0.0357176h 0.435402v 0.0238117h 0.435402v -0.0555606h 0.435402v
 0.0529149h 0.435402v -0.0357176h 0.435402v 0.0396862h 0.435402v 0.051592h 0.435402v -0.0304261h 0.435402v 0.0436548h 0.435402v -0.0132287h 0.435402v 0.0357176h 0.435402v 0.0158745h 0.435402v -0.0370404h 0.435402v -0.0198431h 0.435402v 0.083341h
 0.435402v -0.0449777h 0.435402v 0.0780495h 0.435402v -0.0330718h 0.435402v -0.0158745h 0.435402v 0.0912782h 0.435402v -0.0489463h 0.435402v 0.0343947h 0.435402v -0.0238117h 0.435402v 0.0463005h 0.435402v -0.0595293h 0.435402v 0.945854z"
 fill="#00ffff"/>
<path d="M316.846,207.536h 0.435402v 1.35727h 0.435402v 1.15884h 0.435402v 2.02664h 0.435402v 0.162713h 0.435402v 1.00009h 0.435402v 2.29783h 0.435402v 1.28716h 0.435402v 0.935271h 0.435402v 1.62846h 0.435402v 0.281772h 0.435402v 2.81507h 0.435402v
 0.586033h 0.435402v 1.34007h 0.435402v 0.617782h 0.435402v 0.914105h 0.435402v 0.71832h 0.435402v 1.72899h 0.435402v 1.29509h 0.435402v -0.387602h 0.435402v 2.68411h 0.435402v 0.351884h 0.435402v 1.67873h 0.435402v 0.314844h 0.435402v 1.53321h
 0.435402v 0.437871h 0.435402v 1.33346h 0.435402v 0.47888h 0.435402v 1.20249h 0.435402v 1.23292h 0.435402v 0.527826h 0.435402v 1.02919h 0.435402v 1.55834h 0.435402v 0.906168h 0.435402v 0.906168h 0.435402v 1.01993h 0.435402v 0.806952h 0.435402v
 1.03846h 0.435402v 1.00274h 0.435402v 0.76462h 0.435402v 1.06756h 0.435402v 0.694508h 0.435402v 0.93924h 0.435402v 0.23018h 0.435402v 1.52924h 0.435402v 0.730226h 0.435402v 0.556929h 0.435402v 1.49749h 0.435402v -0.0224888h 0.435402v 1.07153h
 0.435402v 1.03316h 0.435402v 1.27128h 0.435402v -0.0476234h 0.435402v 1.29906h 0.435402v 0.288386h 0.435402v 1.30171h 0.435402v 0.357176h 0.435402v 0.817535h 0.435402v 1.02655h 0.435402v 0.877065h 0.435402v 0.301615h 0.435402v 1.14958h 0.435402v
 0.441839h 0.435402v 0.719643h 0.435402v 0.620427h 0.435402v 0.447131h 0.435402v 0.916751h 0.435402v 1.22233h 0.435402v -0.0119059h 0.435402v 0.576772h 0.435402v 1.3361h 0.435402v 0.2024h 0.435402v 0.814889h 0.435402v 0.785786h 0.435402v 0.16139h
 0.435402v 0.0806952h 0.435402v 1.15619h 0.435402v 0.448454h 0.435402v 0.52518h 0.435402v 0.744777h 0.435402v 0.760652h 0.435402v 0.768589h 0.435402v 0.244731h 0.435402v 1.05565h 0.435402v -0.269866h 0.435402v 1.18397h 0.435402v 1.17339h 0.435402v
 -0.0912782h 0.435402v 0.978926h 0.435402v -0.150807h 0.435402v 0.735517h 0.435402v 0.613813h 0.435402v 0.591324h 0.435402v 0.337333h 0.435402v 0.57545h 0.435402v 0.629687h 0.435402v 0.384956h 0.435402v 0.597938h 0.435402v 0.242086h 0.435402v
 0.410091h 0.435402v 0.840024h 0.435402v 0.289709h 0.435402v 1.05168h 0.435402v -0.010583h 0.435402v 0.820181h 0.435402v 0.444485h 0.435402v 0.628365h 0.435402v -0.175942h 0.435402v 0.675988h 0.435402v 0.168005h 0.435402v 0.207691h 0.435402v
 0.964374h 0.435402v 0.75536h 0.435402v 0.251346h 0.435402v 0.0529149h 0.435402v 0.436548h 0.435402v 0.4974h 0.435402v 0.567512h 0.435402v -0.178588h 0.435402v 0.697154h 0.435402v 0.795046h 0.435402v 0.146839h 0.435402v 0.296323h 0.435402v 0.215628h
 0.435402v 1.10989h 0.435402v -0.171973h 0.435402v 0.924688h 0.435402v -0.0304261h 0.435402v -0.0846638h 0.435402v 0.521212h 0.435402v 0.596616h 0.435402v 0.657468h 0.435402v 0.380987h 0.435402v -0.272512h 0.435402v 0.849284h 0.435402v 0.277803h
 0.435402v 0.100538h 0.435402v 0.738163h 0.435402v 0.168005h 0.435402v 0.100538h 0.435402v 0.129642h 0.435402v 0.608521h 0.435402v 0.776526h 0.435402v -0.521212h 0.435402v 0.822827h 0.435402v -0.0145516h 0.435402v 0.412736h 0.435402v 0.444485h
 0.435402v 0.0582064h 0.435402v 0.652176h 0.435402v 0.33601h 0.435402v 0.083341h 0.435402v 0.312198h 0.435402v 0.271189h 0.435402v 0.64953h 0.435402v -0.119059h 0.435402v 0.386279h 0.435402v 0.0383633h 0.435402v 0.521212h 0.435402v 0.333364h
 0.435402v 0.153453h 0.435402v 0.35453h 0.435402v 0.32675h 0.435402v 0.695831h 0.435402v -0.425965h 0.435402v 0.423319h 0.435402v -0.0859867h 0.435402v 0.566189h 0.435402v 0.306906h 0.435402v 0.177265h 0.435402v 0.0754037h 0.435402v 0.558252h
 0.435402v -0.00661436h 0.435402v 0.279126h 0.435402v 0.370404h 0.435402v -0.0886325h 0.435402v 0.346593h 0.435402v 0.0978926h 0.435402v 0.265897h 0.435402v 0.435225h 0.435402v 0.190494h 0.435402v -0.0436548h 0.435402v 0.556929h 0.435402v -0.0926011h
 0.435402v 0.0357176h 0.435402v 0.542378h 0.435402v 0.158745h 0.435402v 0.235471h 0.435402v 0.240763h 0.435402v 0.473588h 0.435402v -0.0185202h 0.435402v -0.0502692h 0.435402v 0.51592h 0.435402v 0.218274h 0.435402v 0.136256h 0.435402v 0.083341h
 0.435402v 0.496077h 0.435402v -0.183879h 0.435402v -0.00396862h 0.435402v 0.197108h 0.435402v 0.210337h 0.435402v 0.140225h 0.435402v 0.498723h 0.435402v 0.199754h 0.435402v -0.119059h 0.435402v -0.0198431h 0.435402v 0.830764h 0.435402v -0.0582064h
 0.435402v 0.0634979h 0.435402v 0.424642h 0.435402v -0.186525h 0.435402v 0.325427h 0.435402v 0.0317489h 0.435402v 0.309552h 0.435402v 0.195785h 0.435402v -0.0542378h 0.435402v -0.0502692h 0.435402v 0.36379h 0.435402v 0.238117h 0.435402v 0.260606h
 0.435402v 0.0185202h 0.435402v 0.198431h 0.435402v -0.0952468h 0.435402v 0.433902h 0.435402v 0.173296h 0.435402v -0.148162h 0.435402v 0.129642h 0.435402v 0.476234h 0.435402v -0.010583h 0.435402v 0.13361h 0.435402v 0.0396862h 0.435402v 0.308229h
 0.435402v -0.051592h 0.435402v 0.125673h 0.435402v 0.145516h 0.435402v 0.317489h 0.435402v 0.12435h 0.435402v 0.156099h 0.435402v 0.0317489h 0.435402v 0.062175h 0.435402v 0.0198431h 0.435402v 0.277803h 0.435402v 0.0859867h 0.435402v 0.0502692h
 0.435402v -0.0343947h 0.435402v 0.137579h 0.435402v 0.197108h 0.435402v 0.0740809h 0.435402v 0.134933h 0.435402v -0.0608521h 0.435402v 0.358498h 0.435402v -0.0251346h 0.435402v 0.271189h 0.435402v 0.209014h 0.435402v -0.0238117h 0.435402v 0.138902h
 0.435402v 0.0648208h 0.435402v -0.0304261h 0.435402v 0.206368h 0.435402v 0.00396862h 0.435402v 0.316167h 0.435402v -0.0251346h 0.435402v 0.0542378h 0.435402v 0.226211h 0.435402v -0.0674665h 0.435402v -0.010583h 0.435402v 0.174619h 0.435402v
 0.238117h 0.435402v 0.0185202h 0.435402v 0.0463005h 0.435402v 0.268543h 0.435402v 0.0145516h 0.435402v -0.0489463h 0.435402v 0.120381h 0.435402v 0.129642h 0.435402v 0.0926011h 0.435402v 0.164036h 0.435402v 0.0119059h 0.435402v 0.136256h 0.435402v
 0.0529149h 0.435402v 0.0502692h 0.435402v 0.168005h 0.435402v -0.00396862h 0.435402v 0.0529149h 0.435402v 0.0648208h 0.435402v 0.0238117h 0.435402v 0.277803h 0.435402v -0.0859867h 0.435402v 0.051592h 0.435402v 0.101861h 0.870803v 0.181234h 0.435402v
 -0.0476234h 0.435402v 0.212982h 0.435402v 0.111121h 0.435402v 0.0846638h 0.435402v -0.0238117h 0.435402v 0.11509h 0.435402v 0.109798h 0.435402v -0.0899553h 0.435402v 0.11509h 0.435402v 0.185202h 0.435402v 0.00793724h 0.435402v 0.00793724h 0.435402v
 0.165359h 0.435402v -0.189171h 0.435402v 0.406122h 0.435402v -0.22092h 0.435402v 0.198431h 0.435402v -0.00793724h 0.435402v 0.0978926h 0.435402v -0.00396862h 0.435402v -0.0119059h 0.435402v 0.132287h 0.435402v 0.021166h 0.435402v 0.246054h 0.435402v
 -0.0264575h 0.435402v -0.132287h 0.435402v 0.175942h 0.435402v 0.349238h 0.435402v -0.144193h 0.435402v -0.0238117h 0.435402v 0.138902h 0.435402v 0.235471h 0.435402v -0.320135h 0.435402v 0.222243h 0.435402v -0.0476234h 0.435402v 0.0608521h 0.435402v
 0.0859867h 0.435402v 0.0806952h 0.435402v 0.117736h 0.435402v -0.0886325h 0.435402v 0.128319h 0.435402v 0.0436548h 0.435402v -0.0714351h 0.435402v 0.195785h 0.435402v 0.0291032h 0.435402v -0.0648208h 0.435402v 0.0436548h 0.435402v 0.0899553h
 0.435402v 0.137579h 0.435402v 0.0224888h 0.435402v -0.0158745h 0.435402v 0.203722h 0.435402v -0.117736h 0.435402v 0.0502692h 0.435402v 0.0502692h 0.435402v 0.0886325h 0.435402v -0.0291032h 0.435402v 0.0185202h 0.435402v 0.265897h 0.435402v
 -0.182556h 0.435402v 0.0926011h 0.435402v 0.0952468h 0.435402v 0.0568835h 0.435402v -0.0489463h 0.435402v -0.0383633h 0.435402v 0.134933h 0.435402v 0.145516h 0.435402v -0.0198431h 0.435402v -0.0370404h 0.435402v 0.15213h 0.435402v -0.120381h
 0.435402v 0.0396862h 0.435402v 0.134933h 0.435402v -0.144193h 0.435402v 0.021166h 0.435402v 0.216951h 0.435402v -0.0158745h 0.435402v 0.0899553h 0.435402v -0.0277803h 0.435402v 0.0489463h 0.435402v 0.0846638h 0.435402v -0.0965697h 0.435402v
 0.177265h 0.435402v -0.210337h 0.435402v 0.178588h 0.435402v -0.00793724h 0.435402v 0.21166h 0.435402v -0.0608521h 0.435402v 0.0449777h 0.435402v 0.0251346h 0.435402v -0.0185202h 0.435402v -0.0370404h 0.435402v 0.146839h 0.435402v 0.0291032h
 0.435402v 0.101861h 0.435402v 0.00264575h 0.435402v -0.041009h 0.435402v -0.0251346h 0.435402v 0.0238117h 0.435402v 0.0198431h 0.435402v 0.0674665h 0.435402v 0.0264575h 0.435402v -0.0383633h 0.435402v 0.112444h 0.435402v -0.0978926h 0.435402v
 0.198431h 0.435402v -0.0132287h 0.870803v -0.0423319h 0.435402v 0.137579h 0.435402v -0.0873096h 0.435402v 0.166682h 0.435402v -0.0264575h 0.435402v -0.123027h 0.435402v 0.0873096h 0.435402v 0.00132287h 0.435402v 0.0952468h 0.435402v 0.0608521h
 0.435402v -0.107153h 0.435402v 0.00264575h 0.435402v 0.0978926h 0.435402v 0.113767h 0.435402v -0.0383633h 0.435402v 0.0780495h 0.435402v -0.0912782h 0.435402v -0.00529149h 0.435402v 0.111121h 0.435402v 0.0926011h 0.435402v -0.00793724h 0.435402v
 -0.041009h 0.435402v -0.0542378h 0.435402v 0.0780495h 0.435402v 0.0238117h 0.435402v 0.126996h 0.435402v -0.112444h 0.435402v 0.0793724h 0.435402v 0.00529149h 0.435402v -0.0145516h 0.435402v 0.010583h 0.435402v 0.130964h 0.435402v -0.0965697h
 0.435402v 0.0396862h 0.435402v -0.072758h 0.435402v 0.0132287h 0.435402v 0.11509h 0.435402v -0.0502692h 0.435402v 0.0158745h 0.435402v 0.051592h 0.435402v 0.0291032h 0.435402v -0.0383633h 0.435402v 0.10583h 0.435402v -0.0238117h 0.435402v
 -0.0714351h 0.435402v 0.093924h 0.435402v 0.0767266h 0.435402v 0.0383633h 0.435402v -0.0555606h 0.435402v 0.0912782h 0.435402v -0.0846638h 0.435402v 0.0198431h 0.435402v -0.0145516h 0.435402v 0.0582064h 0.435402v 0.00661436h 0.435402v -0.103184h
 0.435402v 0.199754h 0.435402v -0.0238117h 0.435402v -0.0449777h 0.435402v 0.0145516h 0.435402v 0.137579h 0.435402v -0.0608521h 0.435402v -0.072758h 0.435402v 0.0674665h 0.435402v 0.072758h 0.435402v -0.0132287h 0.435402v -0.041009h 0.435402v
 0.041009h 0.435402v 0.0145516h 0.435402v 0.0529149h 0.435402v -0.0542378h 0.435402v 0.021166h 0.435402v 0.0449777h 0.435402v -0.125673h 0.435402v 0.120381h 0.435402v 0.0357176h 0.435402v 0.0238117h 0.435402v -0.0555606h 0.435402v 0.0529149h
 0.435402v -0.0357176h 0.435402v 0.0396862h 0.435402v 0.051592h 0.435402v -0.0304261h 0.435402v 0.0436548h 0.435402v -0.0132287h 0.435402v 0.0357176h 0.435402v 0.0158745h 0.435402v -0.0370404h 0.435402v -0.0198431h 0.435402v 0.083341h 0.435402v
 -0.0449777h 0.435402v 0.0780495h 0.435402v -0.0330718h 0.435402v -0.0158745h 0.435402v 0.0912782h 0.435402v -0.0489463h 0.435402v 0.0343947h 0.435402v -0.0238117h 0.435402v 0.0463005h 0.435402v -0.0595293h 0.435402" fill="none" stroke="#000099"/>
<path d="M317.935,210.183l 2.17701, 6.29653l 2.17701, 5.98933l 2.17701, 5.69712l 2.17701, 5.41916l 2.17701, 5.15477l 2.17701, 4.90327l 2.17701, 4.66405l 2.17701, 4.4365l 2.17701, 4.22005l 2.17701, 4.01416l 2.17701, 3.81831l 2.17701, 3.63202l 2.17701,
 3.45482l 2.17701, 3.28626l 2.17701, 3.12593l 2.17701, 2.97342l 2.17701, 2.82835l 2.17701, 2.69036l 2.17701, 2.5591l 2.17701, 2.43424l 2.17701, 2.31548l 2.17701, 2.20251l 2.17701, 2.09505l 2.17701, 1.99284l 2.17701, 1.89561l 2.17701, 1.80313l
 2.17701, 1.71515l 2.17701, 1.63147l 2.17701, 1.55188l 2.17701, 1.47616l 2.17701, 1.40414l 2.17701, 1.33564l 2.17701, 1.27047l 2.17701, 1.20849l 2.17701, 1.14953l 2.17701, 1.09344l 2.17701, 1.04009l 2.17701, 0.98935l 2.17701, 0.941081l 2.17701,
 0.895167l 2.17701, 0.851493l 2.17701, 0.809949l 2.17701, 0.770433l 2.17701, 0.732845l 2.17701, 0.69709l 2.17701, 0.66308l 2.17701, 0.630729l 2.17701, 0.599957l 2.17701, 0.570685" fill="none" stroke="#ff0000" stroke-width="2"/>
<path d="M424.608,328.114l 2.17701, 0.542842l 2.17701, 0.516358l 2.17701, 0.491165l 2.17701, 0.467202l 2.17701, 0.444408l 2.17701, 0.422726l 2.17701, 0.402102l 2.17701, 0.382484l 2.17701, 0.363823l 2.17701, 0.346072l 2.17701, 0.329188l 2.17701,
 0.313127l 2.17701, 0.29785l 2.17701, 0.283318l 2.17701, 0.269496l 2.17701, 0.256347l 2.17701, 0.24384l 2.17701, 0.231944l 2.17701, 0.220627l 2.17701, 0.209863l 2.17701, 0.199624l 2.17701, 0.189885l 2.17701, 0.180621l 2.17701, 0.171808l 2.17701,
 0.163426l 2.17701, 0.155453l 2.17701, 0.147868l 2.17701, 0.140654l 2.17701, 0.133792l 2.17701, 0.127264l 2.17701, 0.121055l 2.17701, 0.115149l 2.17701, 0.109531l 2.17701, 0.104187l 2.17701, 0.0991041l 2.17701, 0.0942689l 2.17701, 0.0896696l 2.17701,
 0.0852948l 2.17701, 0.0811333l 2.17701, 0.077175l 2.17701, 0.0734097l 2.17701, 0.0698281l 2.17701, 0.0664213l 2.17701, 0.0631807l 2.17701, 0.0600982l 2.17701, 0.0571661l 2.17701, 0.054377l 2.17701, 0.051724l 2.17701, 0.0492005" fill="none"
 stroke="#ff0000" stroke-width="2"/>
<path d="M531.282,338.281l 2.17701, 0.0468" fill="none" stroke="#ff0000" stroke-width="2"/>
<rect x="458.352" y="194.901" width="97.9654" height="62.2301" fill="white"/>
<path d="M458.352,257.131h 97.9654" fill="none" stroke="black"/>
<path d="M556.317,257.131v -62.2301" fill="none" stroke="black"/>
<path d="M556.317,194.901h -97.9654" fill="none" stroke="black"/>
<path d="M458.352,194.901v 62.2301" fill="none" stroke="black"/>
<text xml:space="preserve" x="481.775" y="202.069" fill="black" font-size="8.0035" font-family="Helvetica">MomentumDist</text>
<path d="M458.352,203.791h 97.9654" fill="none" stroke="black"/>
<text xml:space="preserve" x="462.845" y="211.06" fill="black" font-size="7.01372" font-family="Helvetica">Entries </text>
<text xml:space="preserve" x="514.427" y="211.06" fill="black" font-size="7.01372" font-family="Helvetica">          1e+07</text>
<text xml:space="preserve" x="462.845" y="219.579" fill="black" font-size="7.01372" font-family="Helvetica">Mean  </text>
<text xml:space="preserve" x="518.213" y="219.579" fill="black" font-size="7.01372" font-family="Helvetica"> 0.0002889</text>
<text xml:space="preserve" x="514.427" y="219.579" fill="black" font-size="7.01372" font-family="Times">&#0177;</text>
<text xml:space="preserve" x="490.293" y="219.579" fill="black" font-size="7.01372" font-family="Helvetica"> 0.9658 </text>
<text xml:space="preserve" x="468.997" y="228.097" fill="black" font-size="7.01372" font-family="Helvetica"> / ndf </text>
<text xml:space="preserve" x="466.631" y="225.731" fill="black" font-size="4.84248" font-family="Helvetica">2</text>
<text xml:space="preserve" x="462.845" y="228.097" fill="black" font-size="7.01372" font-family="Times">&#0967;</text>
<text xml:space="preserve" x="516.32" y="228.57" fill="black" font-size="7.01372" font-family="Helvetica"> 527.2 / 498</text>
<text xml:space="preserve" x="462.845" y="237.561" fill="black" font-size="7.01372" font-family="Helvetica">Prob  </text>
<text xml:space="preserve" x="529.098" y="237.561" fill="black" font-size="7.01372" font-family="Helvetica"> 0.1764</text>
<text xml:space="preserve" x="462.845" y="246.553" fill="black" font-size="7.01372" font-family="Helvetica">Constant </text>
<text xml:space="preserve" x="536.669" y="246.553" fill="black" font-size="7.01372" font-family="Helvetica"> 0.00</text>
<text xml:space="preserve" x="532.883" y="246.553" fill="black" font-size="7.01372" font-family="Times">&#0177;</text>
<text xml:space="preserve" x="513.481" y="246.553" fill="black" font-size="7.01372" font-family="Helvetica"> 11.51 </text>
<text xml:space="preserve" x="462.845" y="254.124" fill="black" font-size="7.01372" font-family="Helvetica">Slope    </text>
<text xml:space="preserve" x="540.455" y="255.071" fill="black" font-size="7.01372" font-family="Helvetica"> 0.0</text>
<text xml:space="preserve" x="536.669" y="255.071" fill="black" font-size="7.01372" font-family="Times">&#0177;</text>
<text xml:space="preserve" x="532.41" y="255.071" fill="black" font-size="7.01372" font-family="Helvetica">1 </text>
<text xml:space="preserve" x="528.624" y="255.071" fill="black" font-size="7.01372" font-family="Times">&#8722;</text>
<text xml:space="preserve" x="521.053" y="255.071" fill="black" font-size="7.01372" font-family="Helvetica">    </text>
<path d="M316.846,339.24h 217.701" fill="none" stroke="black"/>
<path d="M316.846,335.092v 4.14867" fill="none" stroke="black"/>
<path d="M321.2,337.166v 2.07434" fill="none" stroke="black"/>
<path d="M325.555,337.166v 2.07434" fill="none" stroke="black"/>
<path d="M329.909,337.166v 2.07434" fill="none" stroke="black"/>
<path d="M334.263,337.166v 2.07434" fill="none" stroke="black"/>
<path d="M338.617,335.092v 4.14867" fill="none" stroke="black"/>
<path d="M342.971,337.166v 2.07434" fill="none" stroke="black"/>
<path d="M347.325,337.166v 2.07434" fill="none" stroke="black"/>
<path d="M351.679,337.166v 2.07434" fill="none" stroke="black"/>
<path d="M356.033,337.166v 2.07434" fill="none" stroke="black"/>
<path d="M360.387,335.092v 4.14867" fill="none" stroke="black"/>
<path d="M364.741,337.166v 2.07434" fill="none" stroke="black"/>
<path d="M369.095,337.166v 2.07434" fill="none" stroke="black"/>
<path d="M373.449,337.166v 2.07434" fill="none" stroke="black"/>
<path d="M377.803,337.166v 2.07434" fill="none" stroke="black"/>
<path d="M382.157,335.092v 4.14867" fill="none" stroke="black"/>
<path d="M386.511,337.166v 2.07434" fill="none" stroke="black"/>
<path d="M390.865,337.166v 2.07434" fill="none" stroke="black"/>
<path d="M395.219,337.166v 2.07434" fill="none" stroke="black"/>
<path d="M399.573,337.166v 2.07434" fill="none" stroke="black"/>
<path d="M403.927,335.092v 4.14867" fill="none" stroke="black"/>
<path d="M408.281,337.166v 2.07434" fill="none" stroke="black"/>
<path d="M412.635,337.166v 2.07434" fill="none" stroke="black"/>
<path d="M416.989,337.166v 2.07434" fill="none" stroke="black"/>
<path d="M421.343,337.166v 2.07434" fill="none" stroke="black"/>
<path d="M425.697,335.092v 4.14867" fill="none" stroke="black"/>
<path d="M430.051,337.166v 2.07434" fill="none" stroke="black"/>
<path d="M434.405,337.166v 2.07434" fill="none" stroke="black"/>
<path d="M438.759,337.166v 2.07434" fill="none" stroke="black"/>
<path d="M443.113,337.166v 2.07434" fill="none" stroke="black"/>
<path d="M447.467,335.092v 4.14867" fill="none" stroke="black"/>
<path d="M451.821,337.166v 2.07434" fill="none" stroke="black"/>
<path d="M456.175,337.166v 2.07434" fill="none" stroke="black"/>
<path d="M460.529,337.166v 2.07434" fill="none" stroke="black"/>
<path d="M464.883,337.166v 2.07434" fill="none" stroke="black"/>
<path d="M469.237,335.092v 4.14867" fill="none" stroke="black"/>
<path d="M473.591,337.166v 2.07434" fill="none" stroke="black"/>
<path d="M477.945,337.166v 2.07434" fill="none" stroke="black"/>
<path d="M482.299,337.166v 2.07434" fill="none" stroke="black"/>
<path d="M486.653,337.166v 2.07434" fill="none" stroke="black"/>
<path d="M491.007,335.092v 4.14867" fill="none" stroke="black"/>
<path d="M495.361,337.166v 2.07434" fill="none" stroke="black"/>
<path d="M499.715,337.166v 2.07434" fill="none" stroke="black"/>
<path d="M504.069,337.166v 2.07434" fill="none" stroke="black"/>
<path d="M508.423,337.166v 2.07434" fill="none" stroke="black"/>
<path d="M512.777,335.092v 4.14867" fill="none" stroke="black"/>
<path d="M517.131,337.166v 2.07434" fill="none" stroke="black"/>
<path d="M521.485,337.166v 2.07434" fill="none" stroke="black"/>
<path d="M525.839,337.166v 2.07434" fill="none" stroke="black"/>
<path d="M530.193,337.166v 2.07434" fill="none" stroke="black"/>
<path d="M534.547,335.092v 4.14867" fill="none" stroke="black"/>
<text xml:space="preserve" x="314.724" y="344.511" fill="black" font-size="6.05059" font-family="Helvetica">0</text>
<text xml:space="preserve" x="334.127" y="344.511" fill="black" font-size="6.05059" font-family="Helvetica">0.5</text>
<text xml:space="preserve" x="358.735" y="344.511" fill="black" font-size="6.05059" font-family="Helvetica">1</text>
<text xml:space="preserve" x="377.664" y="344.511" fill="black" font-size="6.05059" font-family="Helvetica">1.5</text>
<text xml:space="preserve" x="401.799" y="344.511" fill="black" font-size="6.05059" font-family="Helvetica">2</text>
<text xml:space="preserve" x="421.201" y="344.511" fill="black" font-size="6.05059" font-family="Helvetica">2.5</text>
<text xml:space="preserve" x="445.336" y="344.511" fill="black" font-size="6.05059" font-family="Helvetica">3</text>
<text xml:space="preserve" x="464.738" y="344.511" fill="black" font-size="6.05059" font-family="Helvetica">3.5</text>
<text xml:space="preserve" x="488.873" y="344.511" fill="black" font-size="6.05059" font-family="Helvetica">4</text>
<text xml:space="preserve" x="508.275" y="344.511" fill="black" font-size="6.05059" font-family="Helvetica">4.5</text>
<text xml:space="preserve" x="532.41" y="344.511" fill="black" font-size="6.05059" font-family="Helvetica">5</text>
<text xml:space="preserve" x="463.792" y="350.663" fill="black" font-size="6.05059" font-family="Helvetica">Modulo dell'impulso (GeV/c)</text>
<path d="M316.846,339.24v -138.289" fill="none" stroke="black"/>
<path d="M323.377,339.24h -6.53102" fill="none" stroke="black"/>
<path d="M320.112,332.626h -3.26551" fill="none" stroke="black"/>
<path d="M320.112,326.012h -3.26551" fill="none" stroke="black"/>
<path d="M320.112,319.397h -3.26551" fill="none" stroke="black"/>
<path d="M323.377,312.783h -6.53102" fill="none" stroke="black"/>
<path d="M320.112,306.169h -3.26551" fill="none" stroke="black"/>
<path d="M320.112,299.554h -3.26551" fill="none" stroke="black"/>
<path d="M320.112,292.94h -3.26551" fill="none" stroke="black"/>
<path d="M323.377,286.325h -6.53102" fill="none" stroke="black"/>
<path d="M320.112,279.711h -3.26551" fill="none" stroke="black"/>
<path d="M320.112,273.097h -3.26551" fill="none" stroke="black"/>
<path d="M320.112,266.482h -3.26551" fill="none" stroke="black"/>
<path d="M323.377,259.868h -6.53102" fill="none" stroke="black"/>
<path d="M320.112,253.254h -3.26551" fill="none" stroke="black"/>
<path d="M320.112,246.639h -3.26551" fill="none" stroke="black"/>
<path d="M320.112,240.025h -3.26551" fill="none" stroke="black"/>
<path d="M323.377,233.411h -6.53102" fill="none" stroke="black"/>
<path d="M320.112,226.796h -3.26551" fill="none" stroke="black"/>
<path d="M320.112,220.182h -3.26551" fill="none" stroke="black"/>
<path d="M320.112,213.567h -3.26551" fill="none" stroke="black"/>
<path d="M323.377,206.953h -6.53102" fill="none" stroke="black"/>
<path d="M323.377,206.953h -6.53102" fill="none" stroke="black"/>
<text xml:space="preserve" x="311.885" y="341.199" fill="black" font-size="6.05059" font-family="Helvetica">0</text>
<text xml:space="preserve" x="309.046" y="314.698" fill="black" font-size="6.05059" font-family="Helvetica">20</text>
<text xml:space="preserve" x="309.046" y="288.67" fill="black" font-size="6.05059" font-family="Helvetica">40</text>
<text xml:space="preserve" x="309.046" y="262.169" fill="black" font-size="6.05059" font-family="Helvetica">60</text>
<text xml:space="preserve" x="309.046" y="235.668" fill="black" font-size="6.05059" font-family="Helvetica">80</text>
<text xml:space="preserve" x="305.733" y="209.168" fill="black" font-size="6.05059" font-family="Helvetica">100</text>
<text xml:space="preserve" x="326.082" y="196.864" fill="black" font-size="4.2004" font-family="Helvetica">3</text>
<text xml:space="preserve" x="319.93" y="200.176" fill="black" font-size="6.05059" font-family="Helvetica">10</text>
<text xml:space="preserve" x="316.617" y="200.176" fill="black" font-size="6.05059" font-family="Times">&#0215;</text>
<g transform="rotate(-90,301.001,250.812)">
<text xml:space="preserve" x="301.001" y="250.812" fill="black" font-size="6.05059" font-family="Helvetica">Numero occorrenze</text>
</g>
<rect x="458.352" y="194.901" width="97.9654" height="62.2301" fill="white"/>
<path d="M458.352,257.131h 97.9654" fill="none" stroke="black"/>
<path d="M556.317,257.131v -62.2301" fill="none" stroke="black"/>
<path d="M556.317,194.901h -97.9654" fill="none" stroke="black"/>
<path d="M458.352,194.901v 62.2301" fill="none" stroke="black"/>
<text xml:space="preserve" x="481.775" y="202.069" fill="black" font-size="8.0035" font-family="Helvetica">MomentumDist</text>
<path d="M458.352,203.791h 97.9654" fill="none" stroke="black"/>
<text xml:space="preserve" x="462.845" y="211.06" fill="black" font-size="7.01372" font-family="Helvetica">Entries </text>
<text xml:space="preserve" x="514.427" y="211.06" fill="black" font-size="7.01372" font-family="Helvetica">          1e+07</text>
<text xml:space="preserve" x="462.845" y="219.579" fill="black" font-size="7.01372" font-family="Helvetica">Mean  </text>
<text xml:space="preserve" x="518.213" y="219.579" fill="black" font-size="7.01372" font-family="Helvetica"> 0.0002889</text>
<text xml:space="preserve" x="514.427" y="219.579" fill="black" font-size="7.01372" font-family="Times">&#0177;</text>
<text xml:space="preserve" x="490.293" y="219.579" fill="black" font-size="7.01372" font-family="Helvetica"> 0.9658 </text>
<text xml:space="preserve" x="468.997" y="228.097" fill="black" font-size="7.01372" font-family="Helvetica"> / ndf </text>
<text xml:space="preserve" x="466.631" y="225.731" fill="black" font-size="4.84248" font-family="Helvetica">2</text>
<text xml:space="preserve" x="462.845" y="228.097" fill="black" font-size="7.01372" font-family="Times">&#0967;</text>
<text xml:space="preserve" x="516.32" y="228.57" fill="black" font-size="7.01372" font-family="Helvetica"> 527.2 / 498</text>
<text xml:space="preserve" x="462.845" y="237.561" fill="black" font-size="7.01372" font-family="Helvetica">Prob  </text>
<text xml:space="preserve" x="529.098" y="237.561" fill="black" font-size="7.01372" font-family="Helvetica"> 0.1764</text>
<text xml:space="preserve" x="462.845" y="246.553" fill="black" font-size="7.01372" font-family="Helvetica">Constant </text>
<text xml:space="preserve" x="536.669" y="246.553" fill="black" font-size="7.01372" font-family="Helvetica"> 0.00</text>
<text xml:space="preserve" x="532.883" y="246.553" fill="black" font-size="7.01372" font-family="Times">&#0177;</text>
<text xml:space="preserve" x="513.481" y="246.553" fill="black" font-size="7.01372" font-family="Helvetica"> 11.51 </text>
<text xml:space="preserve" x="462.845" y="254.124" fill="black" font-size="7.01372" font-family="Helvetica">Slope    </text>
<text xml:space="preserve" x="540.455" y="255.071" fill="black" font-size="7.01372" font-family="Helvetica"> 0.0</text>
<text xml:space="preserve" x="536.669" y="255.071" fill="black" font-size="7.01372" font-family="Times">&#0177;</text>
<text xml:space="preserve" x="532.41" y="255.071" fill="black" font-size="7.01372" font-family="Helvetica">1 </text>
<text xml:space="preserve" x="528.624" y="255.071" fill="black" font-size="7.01372" font-family="Times">&#8722;</text>
<text xml:space="preserve" x="521.053" y="255.071" fill="black" font-size="7.01372" font-family="Helvetica">    </text>
<text xml:space="preserve" x="334.6" y="191.185" fill="black" font-size="6.84818" font-family="Helvetica">Grafico B.4. Distribuzione del modulo dell'impulso e relativo fit</text></svg>
